<svg version="1.1" id="Layer_1" xmlns="http://www.w3.org/2000/svg" xmlns:xlink="http://www.w3.org/1999/xlink" x="0px" y="0px"
	 width="100%" viewBox="0 0 2036 703" enable-background="new 0 0 2036 703" xml:space="preserve">
<path fill="#231F20" opacity="1.000000" stroke="none" 
	d="
M1268.000000,704.000000 
	C845.333313,704.000000 423.166656,704.000000 1.000000,704.000000 
	C1.000000,469.666656 1.000000,235.333328 1.000000,1.000000 
	C679.666687,1.000000 1358.333374,1.000000 2037.000000,1.000000 
	C2037.000000,235.333328 2037.000000,469.666656 2037.000000,704.000000 
	C1780.833374,704.000000 1524.666626,704.000000 1268.000000,704.000000 
M429.008942,370.842682 
	C407.328613,349.470001 385.648285,328.097321 364.322266,306.178314 
	C373.711792,297.756836 383.893463,290.054016 392.323669,280.762177 
	C409.149475,262.216675 419.347656,240.588776 418.161133,214.771698 
	C417.320831,196.487320 409.496338,182.256699 393.397919,173.064972 
	C382.294373,166.725189 370.066040,164.497040 357.470245,164.195450 
	C331.703888,163.578522 307.537689,170.109085 284.267151,180.741135 
	C267.089722,188.589325 251.556870,199.052505 235.805115,209.462143 
	C210.410614,193.561478 184.468262,178.685181 156.501404,167.685059 
	C140.656235,161.452728 124.503937,156.305466 107.207855,156.501419 
	C88.090164,156.718018 74.590240,166.384506 70.525497,182.770676 
	C68.473930,191.041153 69.312988,199.287888 71.686180,207.402328 
	C77.875107,228.563538 89.601891,246.794159 103.314812,263.545105 
	C118.792900,282.452271 135.545929,300.315704 151.193939,319.260376 
	C148.949448,325.159393 146.535233,331.001831 144.540955,336.984253 
	C143.700836,339.504425 142.533035,340.411316 139.948151,340.196747 
	C132.157364,339.550110 124.279861,339.549011 116.572281,338.390564 
	C104.301849,336.546387 92.141357,333.970795 79.623520,331.646790 
	C78.330719,334.801575 76.910416,338.267487 75.397026,341.960541 
	C95.166428,352.640015 116.094925,357.948517 138.012833,360.702148 
	C137.863434,362.023682 137.810562,362.999084 137.636887,363.952454 
	C134.259918,382.490631 134.150238,400.988953 137.976334,419.500000 
	C147.343765,464.820618 179.079468,493.181488 225.285690,497.150543 
	C249.334595,499.216309 273.171326,496.942932 296.797241,492.498138 
	C316.917633,488.712891 336.512573,483.087982 355.772186,474.249176 
	C370.020844,481.004944 384.068329,488.235016 398.573151,494.386780 
	C413.918304,500.894897 429.912750,505.564087 446.834076,505.491791 
	C466.848083,505.406281 480.561035,495.875519 484.521973,479.309937 
	C486.750946,469.987732 485.448700,460.783203 482.454620,451.808777 
	C475.891876,432.137634 464.579071,415.180359 452.244049,398.303864 
	C480.196838,363.312531 499.805969,323.973724 513.063171,281.347748 
	C513.480896,280.004761 513.471985,277.922180 512.703735,276.915955 
	C507.788300,270.478180 502.604462,264.245331 497.203583,257.567596 
	C496.566040,258.900818 496.146820,259.756470 495.745270,260.620300 
	C489.518463,274.015076 483.751526,287.647583 476.971313,300.756042 
	C463.874268,326.077209 448.438049,349.912354 429.008942,370.842682 
M690.151489,309.781006 
	C692.655762,301.694397 695.119019,293.594818 697.675110,285.524597 
	C700.514282,276.560455 700.599060,276.475830 710.223450,276.523193 
	C736.522583,276.652710 762.821411,276.836548 789.120361,277.006012 
	C795.229370,277.045380 797.304504,278.563812 796.851990,284.612976 
	C796.286072,292.178925 795.103333,299.764954 793.401611,307.161652 
	C791.590515,315.033875 792.430176,317.779755 799.733398,320.954071 
	C801.550293,321.743744 803.493591,322.296356 805.427185,322.753052 
	C810.020386,323.837952 813.779419,322.554291 815.849426,318.151398 
	C817.751221,314.106232 819.496338,309.956268 820.914551,305.719940 
	C829.035950,281.461029 836.872803,257.105530 845.164429,232.905548 
	C848.497742,223.176895 846.932861,218.671738 837.390381,214.576187 
	C832.717834,212.570755 828.531982,212.913528 825.382446,217.201355 
	C822.041687,221.749557 818.790649,226.380890 815.790527,231.158127 
	C810.823364,239.067780 804.071472,244.279037 794.717041,245.614517 
	C787.970154,246.577744 781.196472,247.666183 774.404297,247.938766 
	C756.113220,248.672867 737.806641,249.032867 719.504272,249.456757 
	C716.401001,249.528625 713.287903,249.180618 709.639404,248.999847 
	C710.022888,246.572662 710.110840,244.754044 710.608826,243.055588 
	C717.383179,219.946518 724.201355,196.850235 731.035156,173.758636 
	C738.296082,149.223816 745.717590,124.735275 752.761292,100.138397 
	C754.363525,94.543373 757.646912,92.221878 763.024475,91.899536 
	C764.351318,91.820007 765.670776,91.545219 766.996155,91.525772 
	C783.814575,91.278908 800.634277,90.843910 817.451965,90.907593 
	C830.747192,90.957939 844.044495,91.523041 857.332458,92.064873 
	C865.970215,92.417084 872.130432,96.605896 875.213379,104.854805 
	C876.257629,107.648827 877.646423,110.460930 877.942627,113.360329 
	C878.850464,122.245171 879.194885,131.186188 879.991516,140.084503 
	C880.290955,143.429016 880.194824,147.554718 882.071716,149.872940 
	C887.791565,156.937653 903.175720,154.037933 905.984497,145.552155 
	C909.579407,134.691193 912.849731,123.712524 915.908447,112.687050 
	C919.414856,100.048088 922.543884,87.304276 925.821716,74.602127 
	C927.637817,67.564590 925.204712,63.115841 918.007019,61.799438 
	C913.485474,60.972473 908.746399,61.145123 904.107300,61.181011 
	C867.330078,61.465488 830.553284,62.102169 793.776733,62.081558 
	C758.470154,62.061768 723.163635,61.409752 687.857788,60.980438 
	C677.709534,60.857033 667.543152,60.039719 657.421997,60.450527 
	C646.220581,60.905190 642.125305,65.817451 641.996765,77.025261 
	C641.925354,83.247963 644.290466,85.634453 650.544556,86.197906 
	C659.484497,87.003334 668.460327,87.665222 677.320618,89.036163 
	C688.992920,90.842194 693.403198,97.436562 690.250061,108.938400 
	C681.731689,140.011246 672.838074,170.981400 664.062988,201.983688 
	C652.662964,242.259613 641.558044,282.622925 629.715698,322.768555 
	C620.034973,355.586426 609.584717,388.180145 599.207214,420.787842 
	C595.939087,431.056885 592.040588,441.145905 587.997864,451.142242 
	C583.742188,461.665161 576.573914,468.450043 564.272217,468.325562 
	C557.800415,468.260071 551.315125,468.921234 544.845581,469.388214 
	C536.318359,470.003723 534.024902,472.277954 533.131653,480.818085 
	C532.958984,482.469055 532.988464,484.146515 533.004700,485.810944 
	C533.067505,492.242737 535.266541,494.448822 541.745056,494.506012 
	C592.876648,494.957214 644.007751,495.550629 695.140381,495.755310 
	C713.440796,495.828583 731.744324,494.620514 750.047485,494.586395 
	C780.305481,494.529968 810.566772,494.799438 840.821045,495.283325 
	C847.991821,495.398010 852.633789,493.227692 855.809082,486.530853 
	C866.407837,464.177795 877.481689,442.050537 888.185913,419.746735 
	C891.556335,412.723969 890.729309,410.463593 884.582886,405.791809 
	C877.618713,400.498383 873.271179,400.684540 867.008789,406.605194 
	C865.679321,407.862122 864.432251,409.211700 863.205505,410.571167 
	C851.499451,423.543549 839.999023,436.710358 827.978149,449.383789 
	C824.828186,452.704773 820.366821,455.601135 815.994263,456.767578 
	C807.698669,458.980499 799.056274,459.976013 790.514954,461.170349 
	C759.728149,465.475281 728.753113,466.114655 697.807190,464.246948 
	C686.171814,463.544769 674.493591,460.848022 663.222473,457.681213 
	C654.437012,455.212799 652.456421,450.632538 654.745422,442.000366 
	C666.371033,398.157898 678.203613,354.370331 690.151489,309.781006 
M1038.994263,343.509033 
	C1045.310547,334.931946 1051.469238,326.233307 1057.975098,317.802368 
	C1072.905151,298.454224 1089.381958,280.616699 1110.239990,267.465210 
	C1115.805908,263.955750 1121.838257,260.803680 1128.081055,258.832001 
	C1140.005493,255.066040 1148.667969,261.659515 1147.996094,274.013397 
	C1147.585449,281.565826 1146.667236,289.450592 1144.042603,296.462036 
	C1130.831177,331.755585 1116.842285,366.757050 1103.409790,401.969147 
	C1094.834839,424.447723 1086.562866,447.047150 1078.548706,469.731537 
	C1075.604126,478.066315 1076.995850,486.169342 1082.985962,493.122467 
	C1090.063232,501.337585 1099.394165,502.091766 1109.078613,500.497711 
	C1125.904053,497.728302 1140.598755,490.012573 1153.642944,479.323669 
	C1165.481934,469.622406 1177.077637,459.595245 1188.357666,449.250671 
	C1196.808472,441.500732 1204.748657,433.167908 1212.553101,424.757538 
	C1214.509766,422.649017 1216.776733,418.477325 1215.928589,416.587891 
	C1213.927612,412.129272 1210.796387,407.559326 1206.890259,404.743774 
	C1202.764404,401.769867 1198.652222,405.461975 1195.516357,408.446838 
	C1190.214600,413.493500 1185.409668,419.069611 1180.027710,424.022980 
	C1170.804688,432.511627 1161.213867,440.560059 1148.146973,442.466309 
	C1142.368530,443.309265 1140.055664,441.375854 1141.194946,435.623016 
	C1142.414551,429.464539 1144.078369,423.282471 1146.457153,417.483490 
	C1160.320923,383.686768 1174.574219,350.049866 1188.439819,316.253876 
	C1195.314941,299.496674 1202.125122,282.659058 1203.360107,264.245544 
	C1204.584229,245.994110 1190.279541,226.881134 1172.514282,222.796692 
	C1156.193237,219.044235 1140.900391,222.647110 1125.730469,228.459442 
	C1094.358765,240.479401 1069.159668,261.106659 1046.269409,284.983032 
	C1038.578369,293.005463 1031.126953,301.257385 1022.777771,310.253601 
	C1023.551758,305.921509 1024.022217,302.675568 1024.720947,299.479584 
	C1028.573486,281.856598 1031.528564,264.200836 1029.106934,246.028625 
	C1027.006348,230.266937 1012.312500,218.969482 996.577087,221.575577 
	C980.582397,224.224655 968.563232,233.728363 958.409851,245.438019 
	C945.751160,260.037079 934.792908,275.939850 926.007324,293.241241 
	C923.064514,299.036591 924.363770,302.750671 931.146606,307.748413 
	C935.674500,311.084595 939.076355,310.967834 943.429688,306.276520 
	C947.946533,301.408936 951.496887,295.612183 956.197205,290.955872 
	C960.975098,286.222565 966.150452,281.439606 972.038086,278.389038 
	C979.761169,274.387482 985.583496,278.340240 984.961060,287.060608 
	C984.291138,296.446381 982.757385,305.898376 980.407288,315.013855 
	C970.887573,351.939087 956.964783,387.283081 941.721375,422.195618 
	C933.824951,440.280945 927.457214,459.040802 920.627380,477.580139 
	C918.628845,483.005005 919.049683,488.402802 923.403931,492.901031 
	C936.334961,506.259521 957.666809,503.080933 965.399780,486.459534 
	C970.164001,476.219360 974.939209,465.946655 978.946655,455.398743 
	C994.027344,415.705658 1013.768311,378.553192 1038.994263,343.509033 
M1864.021362,478.544861 
	C1891.652588,438.887024 1915.756226,397.235107 1935.368530,353.008850 
	C1948.983521,322.307098 1960.340698,291.019012 1961.657349,256.982635 
	C1962.012817,247.794266 1961.497314,238.653183 1957.411255,230.166245 
	C1952.559082,220.087463 1943.325806,215.783783 1931.178955,217.736572 
	C1920.666992,219.426544 1913.935913,226.051010 1913.107910,237.225021 
	C1912.484741,245.632935 1912.464111,254.280914 1913.703247,262.594238 
	C1917.218628,286.178528 1915.549194,309.327728 1910.186279,332.422485 
	C1903.717407,360.280334 1890.986938,385.446869 1877.071655,410.073761 
	C1867.966431,426.188049 1858.231934,441.946869 1848.779297,457.864868 
	C1847.782227,456.896484 1847.711304,456.315308 1847.718994,455.735138 
	C1847.978149,436.097961 1848.230225,416.460602 1848.513916,396.823761 
	C1849.008911,362.575531 1844.898438,328.742645 1838.961548,295.116882 
	C1835.343140,274.622406 1828.840332,255.134720 1815.555420,238.590164 
	C1794.347168,212.177856 1760.242188,208.879929 1735.029663,231.475754 
	C1711.064697,252.953293 1698.521362,281.332123 1689.496582,311.458405 
	C1687.586426,317.835052 1690.179565,321.788544 1695.858887,323.562469 
	C1703.228516,325.864349 1707.239014,324.197632 1710.148071,317.977081 
	C1715.069214,307.454315 1719.436279,296.578033 1725.396118,286.668213 
	C1729.488159,279.864410 1735.053223,273.312164 1741.425415,268.651367 
	C1753.294434,259.970184 1766.153809,262.642639 1774.459229,274.722595 
	C1778.366089,280.404968 1781.565430,286.784210 1783.952271,293.265015 
	C1794.285767,321.322510 1797.731323,350.763947 1799.844604,380.309326 
	C1802.402344,416.066223 1801.569214,451.848846 1799.021973,487.611969 
	C1797.461914,509.513733 1790.962158,529.502930 1776.458984,546.120361 
	C1765.095459,559.140442 1752.914062,571.473572 1740.657349,583.671082 
	C1736.731201,587.578125 1731.545532,590.320068 1726.684082,593.164246 
	C1718.234375,598.107849 1709.816895,598.622620 1701.509888,592.396240 
	C1698.751465,590.328796 1695.500366,588.841614 1692.326294,587.419861 
	C1680.541504,582.140930 1669.483398,584.075806 1659.513428,591.739563 
	C1648.034790,600.563110 1644.095947,615.555603 1648.755737,630.549500 
	C1652.701050,643.244385 1663.479492,650.503540 1679.357056,652.023193 
	C1698.842651,653.888306 1715.332275,646.831543 1729.022095,634.104919 
	C1747.771729,616.674438 1766.060425,598.653198 1783.426758,579.850830 
	C1812.592529,548.273499 1839.378174,514.692810 1864.021362,478.544861 
M1264.489258,251.525528 
	C1264.553467,260.390686 1266.186401,262.113770 1274.920776,262.157318 
	C1286.368896,262.214386 1297.817627,262.171326 1309.579590,262.171326 
	C1308.455322,266.250397 1307.522583,270.103058 1306.334106,273.875122 
	C1293.062134,315.997833 1279.740356,358.104828 1266.454346,400.223145 
	C1260.415283,419.367859 1253.500244,438.297729 1248.658691,457.742401 
	C1243.144043,479.889679 1254.486816,497.243073 1275.565308,501.871643 
	C1286.281616,504.224792 1296.759033,503.025635 1307.029297,499.527924 
	C1328.075562,492.360199 1346.821167,480.852753 1363.966309,467.089661 
	C1376.232422,457.243286 1387.172485,445.716278 1398.386963,434.618713 
	C1400.169312,432.855103 1401.573730,429.033081 1400.937256,426.792023 
	C1398.178467,417.078857 1391.155273,415.210602 1383.584717,421.560242 
	C1374.919312,428.828217 1366.494263,436.426575 1357.433105,443.166748 
	C1347.749268,450.370026 1337.005615,455.917725 1324.592285,456.338867 
	C1311.046631,456.798401 1299.558594,452.839539 1304.086914,434.078644 
	C1307.789062,418.740204 1311.964844,403.481750 1316.736938,388.443695 
	C1324.366455,364.400940 1332.808105,340.617157 1340.628662,316.633301 
	C1345.672607,301.164642 1350.217651,285.533356 1354.991699,269.976624 
	C1356.185669,266.085663 1358.397583,263.907288 1362.901855,263.936310 
	C1380.212891,264.048035 1397.525757,263.884308 1414.837891,263.841003 
	C1425.801270,263.813568 1428.977661,261.242279 1431.182739,250.534134 
	C1433.643799,238.583466 1430.046143,233.771484 1418.016602,233.527512 
	C1402.362427,233.210007 1386.703003,233.159302 1371.045776,232.998871 
	C1369.307983,232.981064 1367.569946,232.996475 1365.151611,232.996475 
	C1366.164795,229.515259 1366.900146,226.825470 1367.729858,224.165131 
	C1371.635986,211.639297 1375.717163,199.165390 1379.417969,186.579468 
	C1380.917847,181.478577 1381.845337,176.142670 1378.774414,171.087311 
	C1372.663330,161.026993 1354.250610,157.936264 1346.246826,166.518631 
	C1341.520386,171.586838 1337.805420,178.103546 1335.273438,184.606552 
	C1330.222412,197.579285 1326.285034,210.986572 1321.921631,224.225571 
	C1320.776733,227.699570 1319.570801,230.624283 1314.870605,230.387360 
	C1303.070190,229.792526 1291.251587,229.562363 1279.441040,229.161758 
	C1272.875122,228.939041 1268.887207,231.214493 1266.886475,237.481140 
	C1265.540039,241.698364 1265.251709,246.253372 1264.489258,251.525528 
M1462.294312,309.160492 
	C1465.213623,306.700348 1468.978760,304.763763 1470.888672,301.678741 
	C1475.973755,293.464874 1482.197266,286.483978 1489.894653,280.751984 
	C1499.935303,273.274994 1509.914429,276.053802 1512.677368,288.347107 
	C1514.715942,297.417084 1515.557007,307.304932 1514.298340,316.466614 
	C1510.168945,346.521606 1500.935913,375.385559 1491.381714,404.091858 
	C1483.200195,428.674164 1474.669312,453.140350 1466.535645,477.738159 
	C1463.864014,485.817627 1466.194702,491.676971 1472.945557,496.471222 
	C1482.247925,503.077423 1495.312744,503.123901 1503.325806,495.113495 
	C1508.206299,490.234650 1512.153076,483.847839 1514.812500,477.431030 
	C1522.244507,459.498199 1528.757935,441.185638 1535.688965,423.043945 
	C1548.813232,388.691254 1564.093262,355.327362 1583.211792,323.889954 
	C1591.737061,309.871429 1601.092285,296.260345 1611.144043,283.296478 
	C1619.911621,271.988647 1621.585327,272.386810 1633.093872,280.578735 
	C1639.537109,285.165070 1646.542847,287.997772 1654.597412,286.757233 
	C1671.098755,284.215881 1683.288696,267.339478 1681.181396,250.153198 
	C1679.148071,233.570679 1663.866821,221.473587 1647.048950,222.609268 
	C1632.971680,223.559891 1621.007324,229.395325 1611.959351,239.540421 
	C1600.032349,252.913727 1589.124023,267.240814 1578.376465,281.605865 
	C1570.260986,292.453003 1563.084961,304.002960 1555.153564,315.739075 
	C1555.153564,313.958466 1555.063599,312.830353 1555.167480,311.720367 
	C1556.314697,299.461487 1557.839600,287.225922 1558.564209,274.942871 
	C1559.298828,262.488861 1557.208496,250.381882 1551.293823,239.211288 
	C1544.201782,225.816940 1529.850952,219.343216 1515.051758,222.609177 
	C1502.875610,225.296265 1493.197021,232.330368 1484.669067,240.857376 
	C1470.517212,255.007370 1460.991089,272.494781 1451.130127,289.640930 
	C1445.538208,299.364044 1450.051270,307.365814 1462.294312,309.160492 
z"/>
<path fill="#FDFDFD" opacity="1.000000" stroke="none" 
	d="
M690.057617,310.172241 
	C678.203613,354.370331 666.371033,398.157898 654.745422,442.000366 
	C652.456421,450.632538 654.437012,455.212799 663.222473,457.681213 
	C674.493591,460.848022 686.171814,463.544769 697.807190,464.246948 
	C728.753113,466.114655 759.728149,465.475281 790.514954,461.170349 
	C799.056274,459.976013 807.698669,458.980499 815.994263,456.767578 
	C820.366821,455.601135 824.828186,452.704773 827.978149,449.383789 
	C839.999023,436.710358 851.499451,423.543549 863.205505,410.571167 
	C864.432251,409.211700 865.679321,407.862122 867.008789,406.605194 
	C873.271179,400.684540 877.618713,400.498383 884.582886,405.791809 
	C890.729309,410.463593 891.556335,412.723969 888.185913,419.746735 
	C877.481689,442.050537 866.407837,464.177795 855.809082,486.530853 
	C852.633789,493.227692 847.991821,495.398010 840.821045,495.283325 
	C810.566772,494.799438 780.305481,494.529968 750.047485,494.586395 
	C731.744324,494.620514 713.440796,495.828583 695.140381,495.755310 
	C644.007751,495.550629 592.876648,494.957214 541.745056,494.506012 
	C535.266541,494.448822 533.067505,492.242737 533.004700,485.810944 
	C532.988464,484.146515 532.958984,482.469055 533.131653,480.818085 
	C534.024902,472.277954 536.318359,470.003723 544.845581,469.388214 
	C551.315125,468.921234 557.800415,468.260071 564.272217,468.325562 
	C576.573914,468.450043 583.742188,461.665161 587.997864,451.142242 
	C592.040588,441.145905 595.939087,431.056885 599.207214,420.787842 
	C609.584717,388.180145 620.034973,355.586426 629.715698,322.768555 
	C641.558044,282.622925 652.662964,242.259613 664.062988,201.983688 
	C672.838074,170.981400 681.731689,140.011246 690.250061,108.938400 
	C693.403198,97.436562 688.992920,90.842194 677.320618,89.036163 
	C668.460327,87.665222 659.484497,87.003334 650.544556,86.197906 
	C644.290466,85.634453 641.925354,83.247963 641.996765,77.025261 
	C642.125305,65.817451 646.220581,60.905190 657.421997,60.450527 
	C667.543152,60.039719 677.709534,60.857033 687.857788,60.980438 
	C723.163635,61.409752 758.470154,62.061768 793.776733,62.081558 
	C830.553284,62.102169 867.330078,61.465488 904.107300,61.181011 
	C908.746399,61.145123 913.485474,60.972473 918.007019,61.799438 
	C925.204712,63.115841 927.637817,67.564590 925.821716,74.602127 
	C922.543884,87.304276 919.414856,100.048088 915.908447,112.687050 
	C912.849731,123.712524 909.579407,134.691193 905.984497,145.552155 
	C903.175720,154.037933 887.791565,156.937653 882.071716,149.872940 
	C880.194824,147.554718 880.290955,143.429016 879.991516,140.084503 
	C879.194885,131.186188 878.850464,122.245171 877.942627,113.360329 
	C877.646423,110.460930 876.257629,107.648827 875.213379,104.854805 
	C872.130432,96.605896 865.970215,92.417084 857.332458,92.064873 
	C844.044495,91.523041 830.747192,90.957939 817.451965,90.907593 
	C800.634277,90.843910 783.814575,91.278908 766.996155,91.525772 
	C765.670776,91.545219 764.351318,91.820007 763.024475,91.899536 
	C757.646912,92.221878 754.363525,94.543373 752.761292,100.138397 
	C745.717590,124.735275 738.296082,149.223816 731.035156,173.758636 
	C724.201355,196.850235 717.383179,219.946518 710.608826,243.055588 
	C710.110840,244.754044 710.022888,246.572662 709.639404,248.999847 
	C713.287903,249.180618 716.401001,249.528625 719.504272,249.456757 
	C737.806641,249.032867 756.113220,248.672867 774.404297,247.938766 
	C781.196472,247.666183 787.970154,246.577744 794.717041,245.614517 
	C804.071472,244.279037 810.823364,239.067780 815.790527,231.158127 
	C818.790649,226.380890 822.041687,221.749557 825.382446,217.201355 
	C828.531982,212.913528 832.717834,212.570755 837.390381,214.576187 
	C846.932861,218.671738 848.497742,223.176895 845.164429,232.905548 
	C836.872803,257.105530 829.035950,281.461029 820.914551,305.719940 
	C819.496338,309.956268 817.751221,314.106232 815.849426,318.151398 
	C813.779419,322.554291 810.020386,323.837952 805.427185,322.753052 
	C803.493591,322.296356 801.550293,321.743744 799.733398,320.954071 
	C792.430176,317.779755 791.590515,315.033875 793.401611,307.161652 
	C795.103333,299.764954 796.286072,292.178925 796.851990,284.612976 
	C797.304504,278.563812 795.229370,277.045380 789.120361,277.006012 
	C762.821411,276.836548 736.522583,276.652710 710.223450,276.523193 
	C700.599060,276.475830 700.514282,276.560455 697.675110,285.524597 
	C695.119019,293.594818 692.655762,301.694397 690.057617,310.172241 
z"/>
<path fill="#FEFEFE" opacity="1.000000" stroke="none" 
	d="
M1038.780518,343.798157 
	C1013.768311,378.553192 994.027344,415.705658 978.946655,455.398743 
	C974.939209,465.946655 970.164001,476.219360 965.399780,486.459534 
	C957.666809,503.080933 936.334961,506.259521 923.403931,492.901031 
	C919.049683,488.402802 918.628845,483.005005 920.627380,477.580139 
	C927.457214,459.040802 933.824951,440.280945 941.721375,422.195618 
	C956.964783,387.283081 970.887573,351.939087 980.407288,315.013855 
	C982.757385,305.898376 984.291138,296.446381 984.961060,287.060608 
	C985.583496,278.340240 979.761169,274.387482 972.038086,278.389038 
	C966.150452,281.439606 960.975098,286.222565 956.197205,290.955872 
	C951.496887,295.612183 947.946533,301.408936 943.429688,306.276520 
	C939.076355,310.967834 935.674500,311.084595 931.146606,307.748413 
	C924.363770,302.750671 923.064514,299.036591 926.007324,293.241241 
	C934.792908,275.939850 945.751160,260.037079 958.409851,245.438019 
	C968.563232,233.728363 980.582397,224.224655 996.577087,221.575577 
	C1012.312500,218.969482 1027.006348,230.266937 1029.106934,246.028625 
	C1031.528564,264.200836 1028.573486,281.856598 1024.720947,299.479584 
	C1024.022217,302.675568 1023.551758,305.921509 1022.777771,310.253601 
	C1031.126953,301.257385 1038.578369,293.005463 1046.269409,284.983032 
	C1069.159668,261.106659 1094.358765,240.479401 1125.730469,228.459442 
	C1140.900391,222.647110 1156.193237,219.044235 1172.514282,222.796692 
	C1190.279541,226.881134 1204.584229,245.994110 1203.360107,264.245544 
	C1202.125122,282.659058 1195.314941,299.496674 1188.439819,316.253876 
	C1174.574219,350.049866 1160.320923,383.686768 1146.457153,417.483490 
	C1144.078369,423.282471 1142.414551,429.464539 1141.194946,435.623016 
	C1140.055664,441.375854 1142.368530,443.309265 1148.146973,442.466309 
	C1161.213867,440.560059 1170.804688,432.511627 1180.027710,424.022980 
	C1185.409668,419.069611 1190.214600,413.493500 1195.516357,408.446838 
	C1198.652222,405.461975 1202.764404,401.769867 1206.890259,404.743774 
	C1210.796387,407.559326 1213.927612,412.129272 1215.928589,416.587891 
	C1216.776733,418.477325 1214.509766,422.649017 1212.553101,424.757538 
	C1204.748657,433.167908 1196.808472,441.500732 1188.357666,449.250671 
	C1177.077637,459.595245 1165.481934,469.622406 1153.642944,479.323669 
	C1140.598755,490.012573 1125.904053,497.728302 1109.078613,500.497711 
	C1099.394165,502.091766 1090.063232,501.337585 1082.985962,493.122467 
	C1076.995850,486.169342 1075.604126,478.066315 1078.548706,469.731537 
	C1086.562866,447.047150 1094.834839,424.447723 1103.409790,401.969147 
	C1116.842285,366.757050 1130.831177,331.755585 1144.042603,296.462036 
	C1146.667236,289.450592 1147.585449,281.565826 1147.996094,274.013397 
	C1148.667969,261.659515 1140.005493,255.066040 1128.081055,258.832001 
	C1121.838257,260.803680 1115.805908,263.955750 1110.239990,267.465210 
	C1089.381958,280.616699 1072.905151,298.454224 1057.975098,317.802368 
	C1051.469238,326.233307 1045.310547,334.931946 1038.780518,343.798157 
z"/>
<path fill="#FDFDFD" opacity="1.000000" stroke="none" 
	d="
M1863.809814,478.834686 
	C1839.378174,514.692810 1812.592529,548.273499 1783.426758,579.850830 
	C1766.060425,598.653198 1747.771729,616.674438 1729.022095,634.104919 
	C1715.332275,646.831543 1698.842651,653.888306 1679.357056,652.023193 
	C1663.479492,650.503540 1652.701050,643.244385 1648.755737,630.549500 
	C1644.095947,615.555603 1648.034790,600.563110 1659.513428,591.739563 
	C1669.483398,584.075806 1680.541504,582.140930 1692.326294,587.419861 
	C1695.500366,588.841614 1698.751465,590.328796 1701.509888,592.396240 
	C1709.816895,598.622620 1718.234375,598.107849 1726.684082,593.164246 
	C1731.545532,590.320068 1736.731201,587.578125 1740.657349,583.671082 
	C1752.914062,571.473572 1765.095459,559.140442 1776.458984,546.120361 
	C1790.962158,529.502930 1797.461914,509.513733 1799.021973,487.611969 
	C1801.569214,451.848846 1802.402344,416.066223 1799.844604,380.309326 
	C1797.731323,350.763947 1794.285767,321.322510 1783.952271,293.265015 
	C1781.565430,286.784210 1778.366089,280.404968 1774.459229,274.722595 
	C1766.153809,262.642639 1753.294434,259.970184 1741.425415,268.651367 
	C1735.053223,273.312164 1729.488159,279.864410 1725.396118,286.668213 
	C1719.436279,296.578033 1715.069214,307.454315 1710.148071,317.977081 
	C1707.239014,324.197632 1703.228516,325.864349 1695.858887,323.562469 
	C1690.179565,321.788544 1687.586426,317.835052 1689.496582,311.458405 
	C1698.521362,281.332123 1711.064697,252.953293 1735.029663,231.475754 
	C1760.242188,208.879929 1794.347168,212.177856 1815.555420,238.590164 
	C1828.840332,255.134720 1835.343140,274.622406 1838.961548,295.116882 
	C1844.898438,328.742645 1849.008911,362.575531 1848.513916,396.823761 
	C1848.230225,416.460602 1847.978149,436.097961 1847.718994,455.735138 
	C1847.711304,456.315308 1847.782227,456.896484 1848.779297,457.864868 
	C1858.231934,441.946869 1867.966431,426.188049 1877.071655,410.073761 
	C1890.986938,385.446869 1903.717407,360.280334 1910.186279,332.422485 
	C1915.549194,309.327728 1917.218628,286.178528 1913.703247,262.594238 
	C1912.464111,254.280914 1912.484741,245.632935 1913.107910,237.225021 
	C1913.935913,226.051010 1920.666992,219.426544 1931.178955,217.736572 
	C1943.325806,215.783783 1952.559082,220.087463 1957.411255,230.166245 
	C1961.497314,238.653183 1962.012817,247.794266 1961.657349,256.982635 
	C1960.340698,291.019012 1948.983521,322.307098 1935.368530,353.008850 
	C1915.756226,397.235107 1891.652588,438.887024 1863.809814,478.834686 
z"/>
<path fill="#FEF101" opacity="1.000000" stroke="none" 
	d="
M151.744492,318.633057 
	C135.545929,300.315704 118.792900,282.452271 103.314812,263.545105 
	C89.601891,246.794159 77.875107,228.563538 71.686180,207.402328 
	C69.312988,199.287888 68.473930,191.041153 70.525497,182.770676 
	C74.590240,166.384506 88.090164,156.718018 107.207855,156.501419 
	C124.503937,156.305466 140.656235,161.452728 156.501404,167.685059 
	C184.468262,178.685181 210.410614,193.561478 235.926468,210.026245 
	C226.422241,219.157532 216.796661,227.724731 206.851562,236.112762 
	C198.914734,231.520508 191.397369,226.922989 183.660660,222.730194 
	C163.498093,211.803375 143.094254,201.359924 120.697990,195.651917 
	C116.385086,194.552689 111.853241,194.312469 106.154205,193.493805 
	C108.412392,199.133575 109.700752,203.460205 111.779686,207.366043 
	C127.013062,235.986130 148.149124,260.053589 170.770355,283.388367 
	C180.248688,292.948883 189.220551,302.577454 198.938049,311.383179 
	C214.315857,325.318085 230.193069,338.701874 246.068909,352.568665 
	C259.071564,362.899445 271.404358,373.642609 284.757629,382.916473 
	C308.753387,399.581482 333.361603,415.364563 357.972687,431.721802 
	C370.712708,438.535675 383.193970,445.143860 395.965271,451.891815 
	C412.650238,459.606537 429.000519,467.328583 448.239410,468.377655 
	C444.040131,452.183929 434.797668,439.782898 426.094788,426.900055 
	C434.866425,417.384674 443.454254,408.160217 452.042084,398.935791 
	C464.579071,415.180359 475.891876,432.137634 482.454620,451.808777 
	C485.448700,460.783203 486.750946,469.987732 484.521973,479.309937 
	C480.561035,495.875519 466.848083,505.406281 446.834076,505.491791 
	C429.912750,505.564087 413.918304,500.894897 398.573151,494.386780 
	C384.068329,488.235016 370.020844,481.004944 355.172211,473.958527 
	C340.634979,465.343567 326.697723,457.019257 312.540070,448.474762 
	C293.428040,434.990356 274.300140,422.046936 255.718887,408.361267 
	C240.616867,397.238220 226.170364,385.225189 211.226547,373.346039 
	C191.261459,354.934509 171.502975,336.783783 151.744492,318.633057 
z"/>
<path fill="#FDFDFD" opacity="1.000000" stroke="none" 
	d="
M1264.489502,251.091385 
	C1265.251709,246.253372 1265.540039,241.698364 1266.886475,237.481140 
	C1268.887207,231.214493 1272.875122,228.939041 1279.441040,229.161758 
	C1291.251587,229.562363 1303.070190,229.792526 1314.870605,230.387360 
	C1319.570801,230.624283 1320.776733,227.699570 1321.921631,224.225571 
	C1326.285034,210.986572 1330.222412,197.579285 1335.273438,184.606552 
	C1337.805420,178.103546 1341.520386,171.586838 1346.246826,166.518631 
	C1354.250610,157.936264 1372.663330,161.026993 1378.774414,171.087311 
	C1381.845337,176.142670 1380.917847,181.478577 1379.417969,186.579468 
	C1375.717163,199.165390 1371.635986,211.639297 1367.729858,224.165131 
	C1366.900146,226.825470 1366.164795,229.515259 1365.151611,232.996475 
	C1367.569946,232.996475 1369.307983,232.981064 1371.045776,232.998871 
	C1386.703003,233.159302 1402.362427,233.210007 1418.016602,233.527512 
	C1430.046143,233.771484 1433.643799,238.583466 1431.182739,250.534134 
	C1428.977661,261.242279 1425.801270,263.813568 1414.837891,263.841003 
	C1397.525757,263.884308 1380.212891,264.048035 1362.901855,263.936310 
	C1358.397583,263.907288 1356.185669,266.085663 1354.991699,269.976624 
	C1350.217651,285.533356 1345.672607,301.164642 1340.628662,316.633301 
	C1332.808105,340.617157 1324.366455,364.400940 1316.736938,388.443695 
	C1311.964844,403.481750 1307.789062,418.740204 1304.086914,434.078644 
	C1299.558594,452.839539 1311.046631,456.798401 1324.592285,456.338867 
	C1337.005615,455.917725 1347.749268,450.370026 1357.433105,443.166748 
	C1366.494263,436.426575 1374.919312,428.828217 1383.584717,421.560242 
	C1391.155273,415.210602 1398.178467,417.078857 1400.937256,426.792023 
	C1401.573730,429.033081 1400.169312,432.855103 1398.386963,434.618713 
	C1387.172485,445.716278 1376.232422,457.243286 1363.966309,467.089661 
	C1346.821167,480.852753 1328.075562,492.360199 1307.029297,499.527924 
	C1296.759033,503.025635 1286.281616,504.224792 1275.565308,501.871643 
	C1254.486816,497.243073 1243.144043,479.889679 1248.658691,457.742401 
	C1253.500244,438.297729 1260.415283,419.367859 1266.454346,400.223145 
	C1279.740356,358.104828 1293.062134,315.997833 1306.334106,273.875122 
	C1307.522583,270.103058 1308.455322,266.250397 1309.579590,262.171326 
	C1297.817627,262.171326 1286.368896,262.214386 1274.920776,262.157318 
	C1266.186401,262.113770 1264.553467,260.390686 1264.489502,251.091385 
z"/>
<path fill="#FDFDFD" opacity="1.000000" stroke="none" 
	d="
M1461.889893,309.164368 
	C1450.051270,307.365814 1445.538208,299.364044 1451.130127,289.640930 
	C1460.991089,272.494781 1470.517212,255.007370 1484.669067,240.857376 
	C1493.197021,232.330368 1502.875610,225.296265 1515.051758,222.609177 
	C1529.850952,219.343216 1544.201782,225.816940 1551.293823,239.211288 
	C1557.208496,250.381882 1559.298828,262.488861 1558.564209,274.942871 
	C1557.839600,287.225922 1556.314697,299.461487 1555.167480,311.720367 
	C1555.063599,312.830353 1555.153564,313.958466 1555.153564,315.739075 
	C1563.084961,304.002960 1570.260986,292.453003 1578.376465,281.605865 
	C1589.124023,267.240814 1600.032349,252.913727 1611.959351,239.540421 
	C1621.007324,229.395325 1632.971680,223.559891 1647.048950,222.609268 
	C1663.866821,221.473587 1679.148071,233.570679 1681.181396,250.153198 
	C1683.288696,267.339478 1671.098755,284.215881 1654.597412,286.757233 
	C1646.542847,287.997772 1639.537109,285.165070 1633.093872,280.578735 
	C1621.585327,272.386810 1619.911621,271.988647 1611.144043,283.296478 
	C1601.092285,296.260345 1591.737061,309.871429 1583.211792,323.889954 
	C1564.093262,355.327362 1548.813232,388.691254 1535.688965,423.043945 
	C1528.757935,441.185638 1522.244507,459.498199 1514.812500,477.431030 
	C1512.153076,483.847839 1508.206299,490.234650 1503.325806,495.113495 
	C1495.312744,503.123901 1482.247925,503.077423 1472.945557,496.471222 
	C1466.194702,491.676971 1463.864014,485.817627 1466.535645,477.738159 
	C1474.669312,453.140350 1483.200195,428.674164 1491.381714,404.091858 
	C1500.935913,375.385559 1510.168945,346.521606 1514.298340,316.466614 
	C1515.557007,307.304932 1514.715942,297.417084 1512.677368,288.347107 
	C1509.914429,276.053802 1499.935303,273.274994 1489.894653,280.751984 
	C1482.197266,286.483978 1475.973755,293.464874 1470.888672,301.678741 
	C1468.978760,304.763763 1465.213623,306.700348 1461.889893,309.164368 
z"/>
<path fill="#FEFEFD" opacity="1.000000" stroke="none" 
	d="
M245.858948,352.318878 
	C230.193069,338.701874 214.315857,325.318085 198.938049,311.383179 
	C189.220551,302.577454 180.248688,292.948883 170.930832,283.057129 
	C183.003204,267.047180 195.087143,251.669556 207.171082,236.291916 
	C216.796661,227.724731 226.422241,219.157532 236.193344,210.327805 
	C251.556870,199.052505 267.089722,188.589325 284.267151,180.741135 
	C307.537689,170.109085 331.703888,163.578522 357.470245,164.195450 
	C370.066040,164.497040 382.294373,166.725189 393.397919,173.064972 
	C409.496338,182.256699 417.320831,196.487320 418.161133,214.771698 
	C419.347656,240.588776 409.149475,262.216675 392.323669,280.762177 
	C383.893463,290.054016 373.711792,297.756836 363.812744,306.569580 
	C352.092529,313.512634 340.881866,320.064423 329.326111,326.718018 
	C302.408417,339.018677 274.586761,347.145691 245.858948,352.318878 
M297.788269,299.768311 
	C307.946686,291.912109 318.105103,284.055878 328.857178,275.904358 
	C337.708527,267.231476 345.055176,257.421112 350.444855,246.268967 
	C355.756561,235.278214 359.854523,223.875275 358.996765,211.366837 
	C358.147369,198.980377 351.283417,192.127457 339.093445,193.073120 
	C332.176636,193.609695 324.970367,195.577881 318.723877,198.609955 
	C301.084259,207.172302 287.323700,220.612625 274.696655,236.281296 
	C267.576782,246.453049 260.456940,256.624786 252.955551,267.290710 
	C241.359695,286.013275 232.535080,305.993591 225.038803,327.654785 
	C230.291550,326.286377 234.622910,325.253967 238.898697,324.027710 
	C259.190063,318.208313 278.992767,311.194641 297.788269,299.768311 
z"/>
<path fill="#FEFEFD" opacity="1.000000" stroke="none" 
	d="
M312.760468,448.694946 
	C326.697723,457.019257 340.634979,465.343567 354.787811,473.868103 
	C336.512573,483.087982 316.917633,488.712891 296.797241,492.498138 
	C273.171326,496.942932 249.334595,499.216309 225.285690,497.150543 
	C179.079468,493.181488 147.343765,464.820618 137.976334,419.500000 
	C134.150238,400.988953 134.259918,382.490631 137.636887,363.952454 
	C137.810562,362.999084 137.863434,362.023682 138.012833,360.702148 
	C116.094925,357.948517 95.166428,352.640015 75.397026,341.960541 
	C76.910416,338.267487 78.330719,334.801575 79.623520,331.646790 
	C92.141357,333.970795 104.301849,336.546387 116.572281,338.390564 
	C124.279861,339.549011 132.157364,339.550110 139.948151,340.196747 
	C142.533035,340.411316 143.700836,339.504425 144.540955,336.984253 
	C146.535233,331.001831 148.949448,325.159393 151.469208,318.946716 
	C171.502975,336.783783 191.261459,354.934509 211.080048,373.788361 
	C210.471024,383.088257 208.905640,391.726257 209.298248,400.274292 
	C210.552582,427.584869 227.323624,446.713745 253.988022,452.056396 
	C273.841278,456.034332 293.351776,453.014343 312.760468,448.694946 
z"/>
<path fill="#FDFDFD" opacity="1.000000" stroke="none" 
	d="
M395.675232,451.752075 
	C383.193970,445.143860 370.712708,438.535675 358.290283,431.500854 
	C374.533936,422.139465 389.604767,411.663910 403.296509,398.654907 
	C412.267426,389.453796 420.904602,380.417084 429.541748,371.380341 
	C448.438049,349.912354 463.874268,326.077209 476.971313,300.756042 
	C483.751526,287.647583 489.518463,274.015076 495.745270,260.620300 
	C496.146820,259.756470 496.566040,258.900818 497.203583,257.567596 
	C502.604462,264.245331 507.788300,270.478180 512.703735,276.915955 
	C513.471985,277.922180 513.480896,280.004761 513.063171,281.347748 
	C499.805969,323.973724 480.196838,363.312531 452.143066,398.619812 
	C443.454254,408.160217 434.866425,417.384674 425.790771,427.006897 
	C415.427032,435.520447 405.551117,443.636261 395.675232,451.752075 
z"/>
<path fill="#FEF101" opacity="1.000000" stroke="none" 
	d="
M429.275330,371.111511 
	C420.904602,380.417084 412.267426,389.453796 403.054504,398.372742 
	C379.956055,372.600403 355.226959,349.188232 329.671204,326.616211 
	C340.881866,320.064423 352.092529,313.512634 363.635590,306.842743 
	C385.648285,328.097321 407.328613,349.470001 429.275330,371.111511 
z"/>
<path fill="#242020" opacity="1.000000" stroke="none" 
	d="
M329.326111,326.718018 
	C355.226959,349.188232 379.956055,372.600403 402.720764,398.537109 
	C389.604767,411.663910 374.533936,422.139465 358.031525,431.295166 
	C333.361603,415.364563 308.753387,399.581482 284.757629,382.916473 
	C271.404358,373.642609 259.071564,362.899445 246.068893,352.568665 
	C274.586761,347.145691 302.408417,339.018677 329.326111,326.718018 
z"/>
<path fill="#252120" opacity="1.000000" stroke="none" 
	d="
M206.851562,236.112762 
	C195.087143,251.669556 183.003204,267.047180 170.758789,282.756104 
	C148.149124,260.053589 127.013062,235.986130 111.779686,207.366043 
	C109.700752,203.460205 108.412392,199.133575 106.154205,193.493805 
	C111.853241,194.312469 116.385086,194.552689 120.697990,195.651917 
	C143.094254,201.359924 163.498093,211.803375 183.660660,222.730194 
	C191.397369,226.922989 198.914734,231.520508 206.851562,236.112762 
z"/>
<path fill="#252121" opacity="1.000000" stroke="none" 
	d="
M312.540070,448.474762 
	C293.351776,453.014343 273.841278,456.034332 253.988022,452.056396 
	C227.323624,446.713745 210.552582,427.584869 209.298248,400.274292 
	C208.905640,391.726257 210.471024,383.088257 211.286652,374.049133 
	C226.170364,385.225189 240.616867,397.238220 255.718887,408.361267 
	C274.300140,422.046936 293.428040,434.990356 312.540070,448.474762 
z"/>
<path fill="#262220" opacity="1.000000" stroke="none" 
	d="
M395.965271,451.891815 
	C405.551117,443.636261 415.427032,435.520447 425.606995,427.297821 
	C434.797668,439.782898 444.040131,452.183929 448.239410,468.377655 
	C429.000519,467.328583 412.650238,459.606537 395.965271,451.891815 
z"/>
<path fill="#242021" opacity="1.000000" stroke="none" 
	d="
M275.268433,235.875107 
	C287.323700,220.612625 301.084259,207.172302 318.723877,198.609955 
	C324.970367,195.577881 332.176636,193.609695 339.093445,193.073120 
	C351.283417,192.127457 358.147369,198.980377 358.996765,211.366837 
	C359.854523,223.875275 355.756561,235.278214 350.444855,246.268967 
	C345.055176,257.421112 337.708527,267.231476 328.285522,275.827209 
	C310.232086,262.458374 292.750244,249.166748 275.268433,235.875107 
z"/>
<path fill="#FEF101" opacity="1.000000" stroke="none" 
	d="
M274.982544,236.078201 
	C292.750244,249.166748 310.232086,262.458374 327.988708,275.974854 
	C318.105103,284.055878 307.946686,291.912109 297.197845,299.535583 
	C282.183960,288.467438 267.760529,277.631989 253.337067,266.796539 
	C260.456940,256.624786 267.576782,246.453049 274.982544,236.078201 
z"/>
<path fill="#252122" opacity="1.000000" stroke="none" 
	d="
M253.146301,267.043640 
	C267.760529,277.631989 282.183960,288.467438 296.819153,299.617645 
	C278.992767,311.194641 259.190063,318.208313 238.898697,324.027710 
	C234.622910,325.253967 230.291550,326.286377 225.038803,327.654785 
	C232.535080,305.993591 241.359695,286.013275 253.146301,267.043640 
z"/>
</svg>