<?xml version="1.0" encoding="UTF-8"?>
<svg version="1.1" xmlns="http://www.w3.org/2000/svg" width="492" height="198">
<path d="M0 0 C162.36 0 324.72 0 492 0 C492 65.34 492 130.68 492 198 C329.64 198 167.28 198 0 198 C0 132.66 0 67.32 0 0 Z " fill="#000113" transform="translate(0,0)"/>
<path d="M0 0 C14.83195652 5.82158382 28.20765465 15.7057828 39.25 27.125 C35.40426819 27.53071613 33.64494207 27.37961272 30.34765625 25.25390625 C29.34605469 24.40699219 28.34445313 23.56007813 27.3125 22.6875 C15.89650578 13.39824345 3.66513098 4.87297228 -11.48828125 4.7265625 C-14.35977303 5.23242116 -15.70629166 6.04935871 -17.75 8.125 C-19.74698626 15.04706895 -17.21921584 21.57005876 -14.01660156 27.70019531 C-8.7817349 37.03102594 -2.15458026 45.4975997 6.25 52.125 C6.51039062 51.38121094 6.77078125 50.63742188 7.0390625 49.87109375 C10.39417367 42.26256746 17.70809007 37.59229207 25.01953125 34.19140625 C31.73342028 31.97509222 38.30070728 32.07525174 44.9375 34.4375 C47.25 36.125 47.25 36.125 49.25 39.125 C49.58913183 45.05980705 48.09336224 49.57364998 44.25 54.125 C38.00239844 61.10656048 29.16597093 63.96773599 20.25 66.125 C22.76374737 68.21700195 25.28722583 70.29693298 27.8125 72.375 C28.51697266 72.96152344 29.22144531 73.54804687 29.94726562 74.15234375 C34.19797566 77.63910129 38.39230508 80.54614488 43.25 83.125 C55.08920706 72.50089107 55.08920706 72.50089107 63.25 59.125 C62.09182897 55.29032398 59.33974494 53.22576379 56.39453125 50.6875 C55.25 49.125 55.25 49.125 55.57421875 46.9375 C55.79722656 46.339375 56.02023438 45.74125 56.25 45.125 C58.25 45.125 58.25 45.125 59.80078125 46.6640625 C60.38214844 47.35242188 60.96351562 48.04078125 61.5625 48.75 C62.17867188 49.47445312 62.79484375 50.19890625 63.4296875 50.9453125 C64.03039062 51.66460937 64.63109375 52.38390625 65.25 53.125 C65.76820312 53.74117187 66.28640625 54.35734375 66.8203125 54.9921875 C67.96958835 56.36475123 69.1107561 57.7440983 70.25 59.125 C65.87532159 67.41150689 60.867364 74.3099333 54.703125 81.3125 C52.79115971 83.50456212 50.99524186 85.79801086 49.25 88.125 C53.54 90.765 57.83 93.405 62.25 96.125 C60.25 100.125 60.25 100.125 57.97265625 101.08984375 C54.2765431 101.13756974 52.67048729 99.81583446 49.6875 97.6875 C45.44210026 94.59480712 45.44210026 94.59480712 40.25 94.125 C37.3922788 95.58761695 37.3922788 95.58761695 34.4375 97.5 C25.42392934 102.86909443 17.72254788 104.11819482 7.25 103.125 C2.05467653 100.88563643 -0.66322854 97.31699927 -2.75 92.125 C-3.28217124 88.83518216 -3.27239788 85.63824149 -3.1875 82.3125 C-3.1779126 81.42755859 -3.1683252 80.54261719 -3.15844727 79.63085938 C-3.02328604 74.09383968 -2.44549921 69.16656254 -0.30859375 64 C0.43311641 61.5103435 0.27204963 60.52903848 -0.75 58.125 C-2.34961352 56.11314489 -3.96872874 54.21615091 -5.6875 52.3125 C-15.85407874 40.63982336 -27.04602365 26.43387971 -27.94921875 10.3828125 C-27.59635074 6.38364173 -26.21366662 4.30183328 -23.75 1.125 C-16.45553629 -4.12059573 -8.15293028 -2.62757296 0 0 Z " fill="#D4D3D3" transform="translate(57.75,43.875)"/>
<path d="M0 0 C7.65809552 -0.02314591 15.31618742 -0.0409266 22.97430992 -0.05181217 C26.53008635 -0.05703606 30.08583889 -0.06412478 33.64160156 -0.07543945 C37.72721591 -0.08835914 41.81280506 -0.09323229 45.8984375 -0.09765625 C47.81878311 -0.10539818 47.81878311 -0.10539818 49.77792358 -0.11329651 C50.95899689 -0.11337204 52.14007019 -0.11344757 53.35693359 -0.11352539 C54.92246475 -0.11685631 54.92246475 -0.11685631 56.5196228 -0.12025452 C59 0 59 0 61 1 C60.05542371 7.76761128 59.06997835 13.8600433 56 20 C54.515 19.505 54.515 19.505 53 19 C52.94392578 17.95199219 52.94392578 17.95199219 52.88671875 16.8828125 C52.82097656 15.97273438 52.75523437 15.06265625 52.6875 14.125 C52.62949219 13.22007813 52.57148438 12.31515625 52.51171875 11.3828125 C52.2117961 8.63778399 52.2117961 8.63778399 49 7 C45.18174538 6.53861464 41.34316584 6.62968108 37.5 6.625 C35.91251953 6.58826172 35.91251953 6.58826172 34.29296875 6.55078125 C33.27847656 6.54691406 32.26398438 6.54304688 31.21875 6.5390625 C30.28998047 6.53084473 29.36121094 6.52262695 28.40429688 6.51416016 C25.90750355 6.79394548 25.90750355 6.79394548 24.29931641 8.64404297 C22.76347733 11.42886955 21.87452645 14.09917031 20.9921875 17.15625 C20.47205078 18.93708984 20.47205078 18.93708984 19.94140625 20.75390625 C19.58949219 21.99011719 19.23757812 23.22632813 18.875 24.5 C18.51535156 25.73621094 18.15570313 26.97242188 17.78515625 28.24609375 C15.79015212 35.09539728 15.79015212 35.09539728 14 42 C17.5436487 42.09396379 21.08034704 42.0870846 24.625 42.0625 C25.62402344 42.09021484 26.62304688 42.11792969 27.65234375 42.14648438 C33.44883504 42.10463694 33.44883504 42.10463694 38.04980469 38.92529297 C39.55260291 36.67109564 40.84341928 34.4477555 42 32 C43.98 32.495 43.98 32.495 46 33 C45.45339344 39.08878192 44.07141474 44.28645567 41.9375 50 C41.65583984 50.77472656 41.37417969 51.54945312 41.08398438 52.34765625 C40.39679702 54.23450967 39.69945987 56.11766151 39 58 C37.68 58 36.36 58 35 58 C34.86979167 55.98177083 34.73958333 53.96354167 34.609375 51.9453125 C34.18374144 49.85154964 34.18374144 49.85154964 32.24609375 48.890625 C29.79202569 47.91753366 28.08192202 47.76916322 25.453125 47.8046875 C24.60878906 47.81113281 23.76445312 47.81757812 22.89453125 47.82421875 C21.58548828 47.84935547 21.58548828 47.84935547 20.25 47.875 C18.91775391 47.88853516 18.91775391 47.88853516 17.55859375 47.90234375 C15.37211942 47.92585423 13.18619906 47.95871501 11 48 C10.89187988 48.5971582 10.78375977 49.19431641 10.67236328 49.80957031 C9.27230495 57.20107584 7.23345889 64.30815534 5.03515625 71.49609375 C2.99464043 78.12918843 2.99464043 78.12918843 3 85 C7.69261318 88.12840879 12.65165123 87.40998798 18.17700195 87.42553711 C20.16323622 87.43735563 22.14912833 87.48700175 24.13476562 87.53710938 C31.7066375 87.57941034 37.2846677 87.27880321 43 82 C45.09241999 79.87951201 45.09241999 79.87951201 46.5 77.6875 C46.9846875 76.99011719 47.469375 76.29273437 47.96875 75.57421875 C48.3090625 75.05472656 48.649375 74.53523438 49 74 C50.98 74.495 50.98 74.495 53 75 C51.13503124 81.41367307 48.84676871 89.15323129 44 94 C41.91301101 94.06447087 39.82377317 94.05684852 37.73608398 94.02172852 C37.08244873 94.01212097 36.42881348 94.00251343 35.75537109 93.99261475 C33.58550598 93.95951918 31.41583566 93.91922758 29.24609375 93.87890625 C27.74537349 93.85461542 26.24464594 93.83077136 24.74391174 93.80735779 C20.78675045 93.74441352 16.82971767 93.67537643 12.87268066 93.60510254 C8.83770621 93.53451223 4.80264037 93.46963968 0.76757812 93.40429688 C-7.15504907 93.27515132 -15.07754969 93.13957389 -23 93 C-22.67 91.68 -22.34 90.36 -22 89 C-20.01432292 88.609375 -18.02864583 88.21875 -16.04296875 87.828125 C-13.35929551 86.74028805 -12.58018371 85.4068462 -11 83 C-10.10333881 80.79530268 -10.10333881 80.79530268 -9.46948242 78.39697266 C-9.20878464 77.48726715 -8.94808685 76.57756165 -8.67948914 75.64028931 C-8.40756241 74.65813446 -8.13563568 73.67597961 -7.85546875 72.6640625 C-7.56319901 71.63429291 -7.27092926 70.60452332 -6.96980286 69.54354858 C-6.03430018 66.23958245 -5.11085428 62.93237928 -4.1875 59.625 C-3.57823988 57.46853346 -2.96822104 55.31228112 -2.35742188 53.15625 C-0.85081471 47.82747903 0.63841979 42.49405413 2.12017822 37.1583252 C3.00207151 33.99256384 3.89390756 30.82971714 4.78662109 27.66699219 C5.34121296 25.68175027 5.89542946 23.69640345 6.44921875 21.7109375 C6.70766068 20.80252106 6.9661026 19.89410461 7.2323761 18.9581604 C7.58274178 17.69182266 7.58274178 17.69182266 7.94018555 16.39990234 C8.24861641 15.30130386 8.24861641 15.30130386 8.5632782 14.18051147 C9.05170547 11.74183939 9.07385368 9.48080992 9 7 C6.03 6.01 3.06 5.02 0 4 C0 2.68 0 1.36 0 0 Z " fill="#857F7B" transform="translate(150,50)"/>
<path d="M0 0 C2.4375 1.375 2.4375 1.375 4 4 C4.26436677 10.40227356 2.49498545 16.82072682 1 23 C1.74443359 21.93072266 1.74443359 21.93072266 2.50390625 20.83984375 C8.95309113 11.74734969 14.97308486 3.50927285 26 0 C30.97745598 -0.64443018 35.64628576 -0.96963643 40.3515625 0.96875 C43.02705669 4.26556748 42.38578768 7.90373384 42 12 C41.29747043 14.987565 40.26702933 17.79064728 39.15625 20.6484375 C38.86770142 21.42764557 38.57915283 22.20685364 38.28186035 23.00967407 C37.36823208 25.47015269 36.43525548 27.92267032 35.5 30.375 C34.56824633 32.84989554 33.64069258 35.32625608 32.71813965 37.80459595 C32.14555971 39.33942273 31.56708028 40.87206462 30.98205566 42.40219116 C29.85076161 45.40775459 29 47.75998392 29 51 C32.27201149 49.94140805 34.57472882 48.62561432 37.125 46.375 C40 44 40 44 43 44 C42.55987971 48.40120286 39.8705277 50.30032641 36.6875 53.125 C35.72199219 53.99382812 34.75648438 54.86265625 33.76171875 55.7578125 C28.57392626 59.96968363 25.54235471 60.31656555 19 60 C18.01 59.505 18.01 59.505 17 59 C16.16618322 50.17705505 19.22770687 42.94483181 22.375 34.875 C23.14258267 32.86892801 23.90592719 30.86130901 24.66714478 28.85281372 C25.35862805 27.0343769 26.06059052 25.21993496 26.76318359 23.40576172 C28.63191202 18.25993434 30.33467583 13.52215122 30 8 C25.20993657 7.40124207 22.79161318 7.77610123 18.875 10.6875 C4.50362222 22.54871391 -3.31379664 37.87242464 -8.9921875 55.3046875 C-10 58 -10 58 -12 60 C-15.5625 60.1875 -15.5625 60.1875 -19 60 C-19.33 59.67 -19.66 59.34 -20 59 C-19.61825157 51.64198612 -17.64109934 45.3465523 -15.1875 38.4375 C-11.94290288 29.03975619 -9.16899426 19.70339538 -7 10 C-10.77136398 11.28968924 -13.08071021 12.7325167 -15.8125 15.625 C-16.71935547 16.57246094 -16.71935547 16.57246094 -17.64453125 17.5390625 C-18.09183594 18.02117187 -18.53914062 18.50328125 -19 19 C-19.99 18.67 -20.98 18.34 -22 18 C-20.55559113 13.54505355 -18.27831452 10.7418465 -15.125 7.3125 C-14.26132813 6.35988281 -13.39765625 5.40726562 -12.5078125 4.42578125 C-8.51891661 0.56736327 -5.59434485 -0.69929311 0 0 Z " fill="#847F7B" transform="translate(235,85)"/>
<path d="M0 0 C6.8427925 4.15934446 9.14591405 10.39365788 11.0703125 17.91796875 C12.42346701 24.23573744 12.46071752 30.62468035 12.625 37.0625 C12.68300781 38.93325195 12.68300781 38.93325195 12.7421875 40.84179688 C12.83575358 43.89439017 12.92149672 46.94698847 13 50 C23.85696609 30.87343941 23.85696609 30.87343941 25.29736328 9.37866211 C24.92428556 6.23668513 24.78569517 4.39671906 26.3125 1.5703125 C28 0 28 0 30.4375 -0.5625 C33 0 33 0 35.375 1.75 C38.19985796 7.39971593 37.34277372 12.95905086 35.37695312 18.875 C33.53655867 23.71762944 31.31042002 28.36692964 29 33 C28.67547852 33.65468262 28.35095703 34.30936523 28.01660156 34.98388672 C18.6228231 53.71982949 4.40563845 78.58733241 -15.7421875 87.30078125 C-18.97384296 88.30158804 -21.65909937 88.47727152 -25 88 C-25.99 87.34 -26.98 86.68 -28 86 C-28.36328125 84.125 -28.36328125 84.125 -28.3125 82 C-28.30669922 80.948125 -28.30669922 80.948125 -28.30078125 79.875 C-28 78 -28 78 -26 76 C-23.20703125 76.1640625 -23.20703125 76.1640625 -19.8125 76.625 C-13.59924299 77.22163726 -10.9524089 76.68796407 -6 73 C-4.8553125 72.505 -4.8553125 72.505 -3.6875 72 C-0.93562173 70.36925732 -0.23760115 67.8154706 0.6328125 64.828125 C3.66498534 48.94531486 5.38317073 26.0747561 -4 12 C-6.05925139 11.27617533 -6.05925139 11.27617533 -8 11 C-8.29003906 11.88751953 -8.29003906 11.88751953 -8.5859375 12.79296875 C-9.94414719 16.9146645 -11.32050585 20.9950524 -13 25 C-14.65 24.67 -16.3 24.34 -18 24 C-17.46339405 16.30864809 -15.18947747 7.06270968 -9.54296875 1.640625 C-6.06029827 -0.60625918 -4.07451911 -0.64334512 0 0 Z " fill="#85807C" transform="translate(408,85)"/>
<path d="M0 0 C2 0 2 0 3.55078125 1.5390625 C4.42283203 2.57160156 4.42283203 2.57160156 5.3125 3.625 C5.92867188 4.34945312 6.54484375 5.07390625 7.1796875 5.8203125 C7.78039062 6.53960937 8.38109375 7.25890625 9 8 C9.51820312 8.61617187 10.03640625 9.23234375 10.5703125 9.8671875 C11.71958835 11.23975123 12.8607561 12.6190983 14 14 C9.62532159 22.28650689 4.617364 29.1849333 -1.546875 36.1875 C-3.45884029 38.37956212 -5.25475814 40.67301086 -7 43 C-0.565 46.96 -0.565 46.96 6 51 C4 55 4 55 1.72265625 55.96484375 C-1.9734569 56.01256974 -3.57951271 54.69083446 -6.5625 52.5625 C-10.80789974 49.46980712 -10.80789974 49.46980712 -16 49 C-18.8577212 50.46261695 -18.8577212 50.46261695 -21.8125 52.375 C-30.82607066 57.74409443 -38.52745212 58.99319482 -49 58 C-54.20220686 55.75766946 -56.89512234 52.1877608 -59 47 C-59.55611644 43.75246326 -59.57004389 40.60081037 -59.5 37.3125 C-59.49226563 36.43561523 -59.48453125 35.55873047 -59.4765625 34.65527344 C-59.28731389 27.51902365 -57.97565133 21.53580559 -55 15 C-54.52949219 15.40992187 -54.05898438 15.81984375 -53.57421875 16.2421875 C-52.95160156 16.78101562 -52.32898437 17.31984375 -51.6875 17.875 C-51.07261719 18.40867187 -50.45773438 18.94234375 -49.82421875 19.4921875 C-47.86501788 21.1640447 -47.86501788 21.1640447 -45 23 C-44.83083718 25.84015474 -44.8122549 28.48385126 -44.9375 31.3125 C-45.29999279 38.38664815 -45.29999279 38.38664815 -43 45 C-39.609261 47.63724144 -36.14841453 47.40145947 -32 47 C-29.31559621 46.07434352 -26.73442656 45.02069655 -24.13671875 43.875 C-22 43 -22 43 -20 43 C-20 41.35 -20 39.7 -20 38 C-19.01 38 -18.02 38 -17 38 C-12.01992406 37.64787342 -9.44503863 35.06752963 -6.125 31.625 C-5.60341309 31.09132813 -5.08182617 30.55765625 -4.54443359 30.0078125 C-0.0525873 25.28629324 4.63669452 20.14055441 7 14 C5.85078793 10.16459284 3.0879005 8.0991742 0.14453125 5.5625 C-1 4 -1 4 -0.67578125 1.8125 C-0.34126953 0.9153125 -0.34126953 0.9153125 0 0 Z " fill="#D6D5D4" transform="translate(114,89)"/>
<path d="M0 0 C1.4540625 0.0309375 1.4540625 0.0309375 2.9375 0.0625 C4.57121267 5.98065119 2.67306698 10.30041762 0.9375 16.0625 C5.2275 16.0625 9.5175 16.0625 13.9375 16.0625 C14.4325 18.5375 14.4325 18.5375 14.9375 21.0625 C13.9375 22.0625 13.9375 22.0625 10.55859375 22.16015625 C9.16402923 22.15348369 7.76948257 22.14152532 6.375 22.125 C5.66408203 22.12048828 4.95316406 22.11597656 4.22070312 22.11132812 C2.45959987 22.09950864 0.69853964 22.08157263 -1.0625 22.0625 C-2.61788165 26.91662033 -4.16588288 31.77301116 -5.70727539 36.6315918 C-6.23197581 38.28196611 -6.75864037 39.93171737 -7.28735352 41.58081055 C-8.0496898 43.95978833 -8.80478897 46.3409634 -9.55859375 48.72265625 C-9.79404404 49.45210953 -10.02949432 50.18156281 -10.27207947 50.93312073 C-11.64895717 55.31229159 -12.53638592 59.50022716 -13.0625 64.0625 C-9.15039588 64.44416869 -6.78539818 64.10866904 -3.5 62.0625 C-0.16206891 60.120431 1.20378323 59.60992827 4.9375 60.0625 C2.14487544 66.35268347 -3.66832468 70.49542568 -9.8046875 73.37109375 C-14.08702405 74.68246671 -18.66318166 74.88459484 -23.0625 74.0625 C-26.12529451 69.46830823 -25.70578126 65.45443702 -25.0625 60.0625 C-23.71535627 54.32837587 -21.6542817 48.79380476 -19.6875 43.25 C-19.1729283 41.76160297 -18.6598966 40.27267261 -18.1484375 38.78320312 C-17.20818627 36.05151364 -16.25921741 33.3232328 -15.29931641 30.59838867 C-14.19065259 27.4288707 -13.11519635 24.25097299 -12.0625 21.0625 C-15.6925 21.0625 -19.3225 21.0625 -23.0625 21.0625 C-22.0625 17.0625 -22.0625 17.0625 -21.0625 16.0625 C-19.45861512 15.8726047 -17.85439064 15.68557373 -16.25 15.5 C-12.42155683 14.82046458 -12.42155683 14.82046458 -9.6171875 12.328125 C-8.6348019 10.27052996 -7.83472975 8.20666984 -7.0625 6.0625 C-3.62225395 0.07392355 -3.62225395 0.07392355 0 0 Z " fill="#85807C" transform="translate(317.0625,70.9375)"/>
<path d="M0 0 C1.69140625 1.15234375 1.69140625 1.15234375 3 3 C3.29296875 6.06640625 3.29296875 6.06640625 3.1875 9.5625 C3.16042969 10.71878906 3.13335937 11.87507813 3.10546875 13.06640625 C3.07066406 14.03449219 3.03585937 15.00257812 3 16 C3 16.66 3 17.32 3 18 C3.56847656 17.20335938 4.13695312 16.40671875 4.72265625 15.5859375 C14.40669856 2.29665072 14.40669856 2.29665072 21 -1 C25.03191305 -1.53758841 26.5619036 -1.3075996 29.9375 1.0625 C32 4 32 4 31.875 7.75 C31 11 31 11 30 12 C26.625 12.25 26.625 12.25 23 12 C21.9805881 11.01979625 20.97753644 10.02196992 20 9 C16.58890333 9.1380545 15.26595397 9.73595593 12.82421875 12.16015625 C4.18033905 23.90129449 -1.83384567 36.16831603 -6.01049805 50.14892578 C-7.99503615 56.66112386 -7.99503615 56.66112386 -11 59 C-14.6875 59.1875 -14.6875 59.1875 -18 59 C-19.67570134 53.97788689 -18.12847019 50.24545807 -16.5078125 45.4453125 C-16.24241669 44.62553925 -15.97702087 43.80576599 -15.70358276 42.96115112 C-14.85513519 40.34532994 -13.99115079 37.73500746 -13.125 35.125 C-12.26810529 32.52152531 -11.41472637 29.91702045 -10.56784058 27.31027222 C-10.04104875 25.69095745 -9.50826351 24.07357601 -8.96853638 22.45852661 C-7.49727767 17.96062291 -6.52289591 13.70606318 -6 9 C-10.28553341 11.14276671 -12.66070112 13.81196299 -15.47265625 17.57421875 C-17 19 -17 19 -21 19 C-19.91498454 11.93478305 -16.15914211 5.3226608 -10.5625 0.8125 C-6.34946231 -1.33097532 -4.47965065 -1.37835405 0 0 Z " fill="#85807C" transform="translate(357,86)"/>
<path d="M0 0 C14.83195652 5.82158382 28.20765465 15.7057828 39.25 27.125 C35.40426819 27.53071613 33.64494207 27.37961272 30.34765625 25.25390625 C29.34605469 24.40699219 28.34445313 23.56007813 27.3125 22.6875 C15.89650578 13.39824345 3.66513098 4.87297228 -11.48828125 4.7265625 C-14.35977303 5.23242116 -15.70629166 6.04935871 -17.75 8.125 C-19.7475751 15.04911002 -17.21406166 21.55945006 -14.02319336 27.69580078 C-9.49526281 35.79257092 -3.50158246 43.75600721 3.25 50.125 C2.92 51.115 2.59 52.105 2.25 53.125 C-0.25 54.1875 -0.25 54.1875 -3.75 54.125 C-15.14404546 45.33600339 -25.61974523 26.81239583 -27.8125 12.8125 C-28.09751905 7.74730431 -26.84452178 5.11530441 -23.75 1.125 C-16.45553629 -4.12059573 -8.15293028 -2.62757296 0 0 Z " fill="#F7E400" transform="translate(57.75,43.875)"/>
<path d="M0 0 C1.34654663 1.23575481 2.67796453 2.48805705 4 3.75 C11.46688616 10.8354508 19.10504175 17.30224444 27.38818359 23.42211914 C28.08766113 23.94281982 28.78713867 24.46352051 29.5078125 25 C30.44584717 25.68835938 30.44584717 25.68835938 31.40283203 26.390625 C33 27.75 33 27.75 35 30.75 C33.68 30.42 32.36 30.09 31 29.75 C30.95101562 30.51699219 30.90203125 31.28398437 30.8515625 32.07421875 C30 34.75 30 34.75 27.5234375 36.33203125 C14.73868222 41.32855472 14.73868222 41.32855472 8.1875 38.5625 C5.57786986 36.40023503 5.02803847 34.9534413 4 31.75 C3.51146496 26.06146483 3.79254026 20.33450131 5 14.75 C4.44828125 14.52570313 3.8965625 14.30140625 3.328125 14.0703125 C0.28788256 12.34614817 -1.81425673 10.12484178 -4.25 7.625 C-5.14203125 6.71492188 -6.0340625 5.80484375 -6.953125 4.8671875 C-7.96632812 3.81917969 -7.96632812 3.81917969 -9 2.75 C-7.54936709 -0.99746835 -7.54936709 -0.99746835 -5.0625 -2.140625 C-3 -2.25 -3 -2.25 0 0 Z " fill="#F9E202" transform="translate(64,97.25)"/>
<path d="M0 0 C2 0 2 0 3.55078125 1.5390625 C4.42283203 2.57160156 4.42283203 2.57160156 5.3125 3.625 C6.23675781 4.71167969 6.23675781 4.71167969 7.1796875 5.8203125 C7.78039062 6.53960937 8.38109375 7.25890625 9 8 C9.51820312 8.61617187 10.03640625 9.23234375 10.5703125 9.8671875 C11.71958835 11.23975123 12.8607561 12.6190983 14 14 C9.62532159 22.28650689 4.617364 29.1849333 -1.546875 36.1875 C-3.45884029 38.37956212 -5.25475814 40.67301086 -7 43 C-0.565 46.96 -0.565 46.96 6 51 C4 55 4 55 1.70703125 55.9453125 C-1.87555581 56.017688 -3.3838171 54.90091957 -6.3125 52.875 C-9.71217533 50.5486639 -13.06869594 48.40144171 -16.6875 46.4375 C-18.60546875 45.265625 -18.60546875 45.265625 -20 44 C-20.5 40.6875 -20.5 40.6875 -20 38 C-19.01 38 -18.02 38 -17 38 C-12.01992406 37.64787342 -9.44503863 35.06752963 -6.125 31.625 C-5.34261963 30.82449219 -5.34261963 30.82449219 -4.54443359 30.0078125 C-0.0525873 25.28629324 4.63669452 20.14055441 7 14 C5.85078793 10.16459284 3.0879005 8.0991742 0.14453125 5.5625 C-1 4 -1 4 -0.67578125 1.8125 C-0.34126953 0.9153125 -0.34126953 0.9153125 0 0 Z " fill="#FBE316" transform="translate(114,89)"/>
<path d="M0 0 C2 2 2 2 2.375 5.1875 C1.81070473 10.92450189 -0.28774029 14.37554848 -4.4375 18.3125 C-9.81931464 21.85662184 -13.68403594 22.21410048 -20 22 C-19.35620019 14.27440222 -16.45841669 7.61895836 -11 2 C-7.00837082 -0.54784842 -4.55379796 -1.64442704 0 0 Z " fill="#050613" transform="translate(93,82)"/>
<path d="M0 0 C3.83354039 1.31798858 6.2654423 2.89701713 9.1875 5.6875 C13.81703418 9.95072424 18.77350923 13.50839865 24 17 C19.99142519 21.41685558 15.13955469 22.78241817 9.3125 23.375 C5.6536859 22.96079463 3.82869803 22.34377837 1 20 C-0.79977496 16.37545321 -1.24905864 13.46119639 -1.1875 9.4375 C-1.18105469 8.50808594 -1.17460938 7.57867187 -1.16796875 6.62109375 C-1.01753445 4.27361898 -0.66160428 2.24945456 0 0 Z " fill="#060714" transform="translate(69,114)"/>
<path d="M0 0 C-2.31856917 1.54571278 -4.50638429 2.79618552 -7 4 C-2.87877002 2.00182789 0.43763877 1.41933584 5 2 C7.5 4.3125 7.5 4.3125 9 7 C8.67 7.99 8.34 8.98 8 10 C6.68 8.02 5.36 6.04 4 4 C-0.09257062 4.24073945 -2.43064034 4.54980864 -5.6875 7.125 C-10.41508469 13.00253773 -12.85867372 18.84602357 -15 26 C-13.24970238 25.68917128 -11.49977306 25.37626821 -9.75 25.0625 C-8.77546875 24.88847656 -7.8009375 24.71445313 -6.796875 24.53515625 C-4.50278205 24.09620271 -2.25708029 23.59651408 0 23 C-1.63412443 24.70840281 -2.86906094 25.93453047 -5 27 C-0.76147632 26.65399807 2.15925827 26.1007145 5.8125 23.875 C6.864375 23.25625 7.91625 22.6375 9 22 C9.66 22.33 10.32 22.66 11 23 C4.21166536 27.67969663 -3.47927325 32.2127272 -12 31 C-14.57792486 29.28373262 -16.69530323 27.18955965 -18.875 25 C-19.46796875 24.42765625 -20.0609375 23.8553125 -20.671875 23.265625 C-22.12748978 21.85696554 -23.56554376 20.43019969 -25 19 C-20.57195314 9.45117502 -11.35686196 -0.63646162 0 0 Z " fill="#D7D5D5" transform="translate(88,78)"/>
<path d="M0 0 C1.32 0.33 2.64 0.66 4 1 C2.13503124 7.41367307 -0.15323129 15.15323129 -5 20 C-7.05637626 20.06444361 -9.1150333 20.05685901 -11.17211914 20.02172852 C-11.81600082 20.01212097 -12.45988251 20.00251343 -13.12327576 19.99261475 C-15.2606769 19.95952022 -17.39788022 19.91922824 -19.53515625 19.87890625 C-21.01345615 19.85461532 -22.49176346 19.83077126 -23.97007751 19.80735779 C-27.86805635 19.74441454 -31.76590469 19.67537716 -35.66375732 19.60510254 C-39.63840778 19.53451131 -43.61315103 19.46963931 -47.58789062 19.40429688 C-55.39202969 19.27515264 -63.19603979 19.13957512 -71 19 C-71 18.67 -71 18.34 -71 18 C-53.84 17.67 -36.68 17.34 -19 17 C-19 16.67 -19 16.34 -19 16 C-26.92 15.67 -34.84 15.34 -43 15 C-43 14.67 -43 14.34 -43 14 C-42.16339844 13.99589111 -41.32679688 13.99178223 -40.46484375 13.98754883 C-37.3257194 13.96039001 -34.18789561 13.91111856 -31.04931641 13.84741211 C-29.03699979 13.81313033 -27.02430781 13.80379225 -25.01171875 13.79492188 C-17.44681008 13.6238561 -11.72486293 13.26009644 -6 8 C-3.90758001 5.87951201 -3.90758001 5.87951201 -2.5 3.6875 C-2.0153125 2.99011719 -1.530625 2.29273437 -1.03125 1.57421875 C-0.6909375 1.05472656 -0.350625 0.53523438 0 0 Z " fill="#969089" transform="translate(199,124)"/>
<path d="M0 0 C2 0 2 0 3.55078125 1.5390625 C4.42283203 2.57160156 4.42283203 2.57160156 5.3125 3.625 C5.92867187 4.34945312 6.54484375 5.07390625 7.1796875 5.8203125 C7.78039062 6.53960937 8.38109375 7.25890625 9 8 C9.51820312 8.61617187 10.03640625 9.23234375 10.5703125 9.8671875 C11.71958835 11.23975123 12.8607561 12.6190983 14 14 C10.34472786 20.92380901 6.37006169 27.10449732 1.3125 33.0625 C0.84932373 33.60994873 0.38614746 34.15739746 -0.09106445 34.72143555 C-2.51751885 37.51515124 -4.93171107 39.92333606 -8 42 C-8 37.53322034 -7.4259771 36.71756195 -4.875 33.25 C-4.23949219 32.37085938 -3.60398437 31.49171875 -2.94921875 30.5859375 C-1.74612475 28.98984887 -0.52330022 27.40816054 0.73046875 25.8515625 C3.66130143 22.18983081 6.3016093 18.67231628 7.30078125 14.015625 C6.73368847 10.21536686 3.58055842 8.16859812 0.72265625 5.859375 C0.15417969 5.24578125 -0.41429688 4.6321875 -1 4 C-0.75390625 1.765625 -0.75390625 1.765625 0 0 Z " fill="#F7E313" transform="translate(114,89)"/>
<path d="M0 0 C16.17 0 32.34 0 49 0 C49 12.375 49 12.375 46 18 C45.01 17.67 44.02 17.34 43 17 C42.95101562 16.32453125 42.90203125 15.6490625 42.8515625 14.953125 C42.77679688 14.06109375 42.70203125 13.1690625 42.625 12.25 C42.52058594 10.92742188 42.52058594 10.92742188 42.4140625 9.578125 C42.07643063 6.65332423 42.07643063 6.65332423 40 3 C26.8 2.34 13.6 1.68 0 1 C0 0.67 0 0.34 0 0 Z " fill="#7E7976" transform="translate(160,52)"/>
<path d="M0 0 C11.70615034 6.15034169 11.70615034 6.15034169 16 10 C14.3125 12.0625 14.3125 12.0625 12 14 C7.72480356 13.71113538 5.08723424 11.93063844 1.6875 9.4375 C0.80449219 8.79683594 -0.07851562 8.15617188 -0.98828125 7.49609375 C-1.98408203 6.75552734 -1.98408203 6.75552734 -3 6 C-2.34 5.67 -1.68 5.34 -1 5 C-0.34444881 2.47266765 -0.34444881 2.47266765 0 0 Z " fill="#F5E401" transform="translate(104,131)"/>
<path d="M0 0 C0 3 0 3 -1.5 4.6875 C-2.2425 5.3371875 -2.2425 5.3371875 -3 6 C-2.01 6.33 -1.02 6.66 0 7 C-1.2065625 7.86625 -1.2065625 7.86625 -2.4375 8.75 C-6.71065056 12.27026213 -9.73310841 16.80302754 -12.94921875 21.2578125 C-14.53922073 23.38387229 -16.05623839 25.21050518 -18 27 C-16.66511872 23.40608886 -15.03977277 20.24509304 -13 17 C-13.66 16.67 -14.32 16.34 -15 16 C-10.55533227 9.87469229 -5.89066214 4.75843097 0 0 Z " fill="#8E8882" transform="translate(253,89)"/>
<path d="M0 0 C0.68578125 -0.020625 1.3715625 -0.04125 2.078125 -0.0625 C4.0859375 -0.078125 4.0859375 -0.078125 7.625 0.25 C8.615 1.24 9.605 2.23 10.625 3.25 C-9.175 3.25 -28.975 3.25 -49.375 3.25 C-49.375 2.92 -49.375 2.59 -49.375 2.25 C-48.1382251 2.22494385 -46.9014502 2.1998877 -45.62719727 2.17407227 C-41.05563287 2.08017747 -36.48422682 1.97991371 -31.9128418 1.87768555 C-29.93110854 1.83426856 -27.94933622 1.79259863 -25.9675293 1.75268555 C-23.1253683 1.69514617 -20.28340517 1.63140555 -17.44140625 1.56640625 C-16.10391075 1.54133751 -16.10391075 1.54133751 -14.73939514 1.51576233 C-9.48320203 1.3880344 -5.32179419 0.03956724 0 0 Z " fill="#797572" transform="translate(178.375,138.75)"/>
<path d="M0 0 C0.66 0.33 1.32 0.66 2 1 C0.35 2.98 -1.3 4.96 -3 7 C-2.34 7.33 -1.68 7.66 -1 8 C-4.3 12.62 -7.6 17.24 -11 22 C-12.21087436 17.15650257 -12.21087436 17.15650257 -11 14 C-9.77206149 12.10302772 -8.47252558 10.25147674 -7.125 8.4375 C-6.42632812 7.48746094 -5.72765625 6.53742188 -5.0078125 5.55859375 C-3.42487404 3.54142509 -1.8684632 1.74507412 0 0 Z " fill="#88837F" transform="translate(372,89)"/>
<path d="M0 0 C0.66 0.33 1.32 0.66 2 1 C-4.63739516 5.57564299 -12.61987192 10.39668801 -21 9 C-22.6640625 6.97265625 -22.6640625 6.97265625 -24 5 C-21.87790224 4.30359327 -19.75221473 3.61811643 -17.625 2.9375 C-15.84996094 2.36322266 -15.84996094 2.36322266 -14.0390625 1.77734375 C-11 1 -11 1 -9 2 C-11.475 3.485 -11.475 3.485 -14 5 C-9.76147632 4.65399807 -6.84074173 4.1007145 -3.1875 1.875 C-2.135625 1.25625 -1.08375 0.6375 0 0 Z " fill="#ECEAEB" transform="translate(97,100)"/>
<path d="M0 0 C2 0 2 0 3.55078125 1.5390625 C4.42283203 2.57160156 4.42283203 2.57160156 5.3125 3.625 C5.92867188 4.34945312 6.54484375 5.07390625 7.1796875 5.8203125 C7.78039062 6.53960937 8.38109375 7.25890625 9 8 C9.77730469 8.92425781 9.77730469 8.92425781 10.5703125 9.8671875 C11.71958835 11.23975123 12.8607561 12.6190983 14 14 C13.01 15.32 12.02 16.64 11 18 C11 17.34 11 16.68 11 16 C10.34 15.67 9.68 15.34 9 15 C9.99 15 10.98 15 12 15 C11.34 14.67 10.68 14.34 10 14 C5.86815437 11.24543625 1.9310074 8.03982766 -1 4 C-0.7265625 1.74609375 -0.7265625 1.74609375 0 0 Z " fill="#FAEF01" transform="translate(114,89)"/>
<path d="M0 0 C0.66 0.33 1.32 0.66 2 1 C1.01 2.485 1.01 2.485 0 4 C1.65 4 3.3 4 5 4 C4.319375 4.515625 3.63875 5.03125 2.9375 5.5625 C-0.60342473 8.50071413 -3.79109819 11.70787019 -7 15 C-7.99 14.67 -8.98 14.34 -10 14 C-8.62815653 9.93501119 -6.77931541 7.32603439 -3.875 4.1875 C-3.15054688 3.39730469 -2.42609375 2.60710937 -1.6796875 1.79296875 C-1.12539062 1.20128906 -0.57109375 0.60960938 0 0 Z " fill="#8E8882" transform="translate(223,89)"/>
<path d="M0 0 C0 3 0 3 -2.1875 5.48046875 C-3.115625 6.37378906 -4.04375 7.26710937 -5 8.1875 C-5.928125 9.08855469 -6.85625 9.98960937 -7.8125 10.91796875 C-8.534375 11.60503906 -9.25625 12.29210937 -10 13 C-10.66 12.67 -11.32 12.34 -12 12 C-11.67 11.34 -11.34 10.68 -11 10 C-12.32 9.67 -13.64 9.34 -15 9 C-5.77448747 1.33257403 -5.77448747 1.33257403 0 0 Z " fill="#8E8883" transform="translate(412,153)"/>
<path d="M0 0 C0.99 1.32 1.98 2.64 3 4 C6.93075644 3.42547254 6.93075644 3.42547254 10 1 C9.34 4.3 8.68 7.6 8 11 C9.65 11 11.3 11 13 11 C13 11.33 13 11.66 13 12 C9.6655367 12.58353108 7.66457973 12.46121107 4.85546875 10.51171875 C-0.63187799 5.73624402 -0.63187799 5.73624402 -2 3 C-1.34 2.01 -0.68 1.02 0 0 Z " fill="#DAD7D2" transform="translate(65,93)"/>
<path d="M0 0 C-0.57889381 3.28754511 -1.54828411 4.93672495 -3.9375 7.25 C-4.46214844 7.77078125 -4.98679687 8.2915625 -5.52734375 8.828125 C-7 10 -7 10 -9 10 C-9 9.34 -9 8.68 -9 8 C-10.65 8.33 -12.3 8.66 -14 9 C-12.948125 8.1646875 -12.948125 8.1646875 -11.875 7.3125 C-10.37575052 6.10658194 -8.88012397 4.8942094 -7.4375 3.62109375 C-3.31089744 0 -3.31089744 0 0 0 Z " fill="#87817E" transform="translate(278,129)"/>
<path d="M0 0 C0.33 0.66 0.66 1.32 1 2 C0.62488281 2.49628906 0.24976562 2.99257812 -0.13671875 3.50390625 C-0.90435547 4.52291016 -0.90435547 4.52291016 -1.6875 5.5625 C-2.23792969 6.29082031 -2.78835937 7.01914063 -3.35546875 7.76953125 C-4.80029439 9.72914038 -6.15104029 11.72436343 -7.5 13.75 C-9.87020581 17.12387602 -12.45181996 18.93710463 -16 21 C-16.66 20.67 -17.32 20.34 -18 20 C-16.67935547 18.71416016 -16.67935547 18.71416016 -15.33203125 17.40234375 C-14.15858334 16.247671 -12.9854215 15.09270748 -11.8125 13.9375 C-11.23435547 13.37611328 -10.65621094 12.81472656 -10.06054688 12.23632812 C-6.20130205 8.42069059 -3.04165078 4.49660237 0 0 Z " fill="#F4EFCA" transform="translate(119,107)"/>
<path d="M0 0 C1.14926266 0.95421808 2.29430541 1.91352045 3.4375 2.875 C4.07558594 3.40867187 4.71367188 3.94234375 5.37109375 4.4921875 C7 6 7 6 8 8 C5.69 7.34 3.38 6.68 1 6 C0.01 7.32 -0.98 8.64 -2 10 C-1.125 2.25 -1.125 2.25 0 0 Z " fill="#E0DDD6" transform="translate(59,104)"/>
<path d="M0 0 C2.0625 0.4375 2.0625 0.4375 4 1 C3.25 8.75 3.25 8.75 1 11 C1 9.35 1 7.7 1 6 C-0.65 6.33 -2.3 6.66 -4 7 C-1.125 1.125 -1.125 1.125 0 0 Z " fill="#8F8A83" transform="translate(192,82)"/>
<path d="M0 0 C0.71484375 1.765625 0.71484375 1.765625 1 4 C-0.43359375 5.921875 -0.43359375 5.921875 -2.4375 7.75 C-3.09621094 8.36359375 -3.75492187 8.9771875 -4.43359375 9.609375 C-5.20896484 10.29773438 -5.20896484 10.29773438 -6 11 C-6.66 10.67 -7.32 10.34 -8 10 C-6.44303593 6.17836093 -3.96591316 3.81381505 -1 1 C-0.67 0.67 -0.34 0.34 0 0 Z " fill="#F5DC07" transform="translate(113,120)"/>
<path d="M0 0 C1.32 1.65 2.64 3.3 4 5 C2.02 7.97 0.04 10.94 -2 14 C-3.21065165 10.36804504 -2.62784815 8.93468371 -1.5625 5.3125 C-1.27503906 4.31863281 -0.98757812 3.32476562 -0.69140625 2.30078125 C-0.46324219 1.54152344 -0.23507813 0.78226562 0 0 Z " fill="#0E0F16" transform="translate(238,95)"/>
<path d="M0 0 C0.33 1.32 0.66 2.64 1 4 C0 5 0 5 -3.3125 5.3125 C-7 5 -7 5 -9.4375 3 C-9.953125 2.34 -10.46875 1.68 -11 1 C-5.555 0.505 -5.555 0.505 0 0 Z " fill="#797572" transform="translate(331,88)"/>
<path d="M0 0 C2.5 2.3125 2.5 2.3125 4 5 C3.67 5.99 3.34 6.98 3 8 C1.68 6.02 0.36 4.04 -1 2 C-5.77576339 2.4682121 -9.04476345 3.24331998 -13 6 C-13.33 5.01 -13.66 4.02 -14 3 C-9.16388672 0.63129145 -5.50466227 -0.83089242 0 0 Z " fill="#E4E3E4" transform="translate(93,80)"/>
<path d="M0 0 C0.66 0.33 1.32 0.66 2 1 C0.35 2.98 -1.3 4.96 -3 7 C-2.34 7.33 -1.68 7.66 -1 8 C-4 10 -4 10 -6 10 C-6.33 10.66 -6.66 11.32 -7 12 C-7.66 11.67 -8.32 11.34 -9 11 C-7.87672229 9.54033966 -6.75131706 8.08231636 -5.625 6.625 C-4.99851562 5.81289062 -4.37203125 5.00078125 -3.7265625 4.1640625 C-2 2 -2 2 0 0 Z " fill="#968F89" transform="translate(372,89)"/>
<path d="M0 0 C1.25541557 3.76624671 0.37061958 5.37188934 -1 9 C-3.5 7.6875 -3.5 7.6875 -6 6 C-6 5.01 -6 4.02 -6 3 C-5.195625 2.87625 -4.39125 2.7525 -3.5625 2.625 C-2.716875 2.41875 -1.87125 2.2125 -1 2 C-0.67 1.34 -0.34 0.68 0 0 Z " fill="#E1DFD8" transform="translate(74,94)"/>
<path d="M0 0 C0.33 0 0.66 0 1 0 C1.33 2.97 1.66 5.94 2 9 C2.66 8.34 3.32 7.68 4 7 C4.33 7.66 4.66 8.32 5 9 C3.69593116 11.01920337 2.36176581 13.01924973 1 15 C0.67 15 0.34 15 0 15 C0 10.05 0 5.1 0 0 Z " fill="#0D0E16" transform="translate(420,121)"/>
<path d="M0 0 C3.71599191 -0.20086443 4.77208445 -0.1519437 8 2 C8.66 2.66 9.32 3.32 10 4 C6.37 4 2.74 4 -1 4 C-0.67 2.68 -0.34 1.36 0 0 Z " fill="#99938A" transform="translate(295,88)"/>
<path d="M0 0 C-0.33 1.32 -0.66 2.64 -1 4 C-1.99 4 -2.98 4 -4 4 C-6.17032476 5.43990623 -6.17032476 5.43990623 -8 7 C-8.66 6.67 -9.32 6.34 -10 6 C-8.90398831 4.99106869 -7.79786082 3.99311775 -6.6875 3 C-6.07261719 2.443125 -5.45773437 1.88625 -4.82421875 1.3125 C-3 0 -3 0 0 0 Z " fill="#928B85" transform="translate(278,129)"/>
<path d="M0 0 C0.33 0 0.66 0 1 0 C2.7610915 9.68600328 2.7610915 9.68600328 0.0625 13.625 C-0.618125 14.40875 -1.29875 15.1925 -2 16 C-3.58272601 12.83454798 -2.33086619 10.25581122 -1.5625 6.875 C-1.27503906 5.59367187 -0.98757813 4.31234375 -0.69140625 2.9921875 C-0.46324219 2.00476563 -0.23507812 1.01734375 0 0 Z " fill="#050509" transform="translate(361,91)"/>
<path d="M0 0 C0.99 0 1.98 0 3 0 C2.01 3.3 1.02 6.6 0 10 C-0.66 10 -1.32 10 -2 10 C-1.54177532 6.53058454 -1.10868317 3.32604951 0 0 Z " fill="#7E7976" transform="translate(394,99)"/>
<path d="M0 0 C0.99 0.66 1.98 1.32 3 2 C3 2.66 3 3.32 3 4 C1.04783565 5.95216435 -0.53199953 6.84826645 -3 8 C-3.66 7.34 -4.32 6.68 -5 6 C-4.360625 5.566875 -3.72125 5.13375 -3.0625 4.6875 C-0.73253997 3.08760823 -0.73253997 3.08760823 0 0 Z " fill="#7F7A76" transform="translate(254,88)"/>
<path d="M0 0 C-0.639375 0.28875 -1.27875 0.5775 -1.9375 0.875 C-4.15206079 1.82823451 -4.15206079 1.82823451 -5 4 C-4.34 4.33 -3.68 4.66 -3 5 C-4.98 5.66 -6.96 6.32 -9 7 C-8.67 6.401875 -8.34 5.80375 -8 5.1875 C-6.79212012 2.94613529 -6.79212012 2.94613529 -7 0 C-3.86650268 -1.04449911 -3.01031744 -0.93423645 0 0 Z " fill="#948E87" transform="translate(263,87)"/>
<path d="M0 0 C-1.32 1.32 -2.64 2.64 -4 4 C-5.32 2.68 -6.64 1.36 -8 0 C-4.71303767 -0.79953138 -3.28976808 -1.09658936 0 0 Z " fill="#0D0C10" transform="translate(85,109)"/>
<path d="M0 0 C5.75 0.75 5.75 0.75 8 3 C7.67 3.66 7.34 4.32 7 5 C5.02 5 3.04 5 1 5 C1.33 4.01 1.66 3.02 2 2 C1.34 1.34 0.68 0.68 0 0 Z " fill="#ECDB01" transform="translate(59,46)"/>
<path d="M0 0 C-1 3 -1 3 -2.875 4.1875 C-5 5 -5 5 -8 5 C-3.375 0 -3.375 0 0 0 Z " fill="#0C0C16" transform="translate(377,94)"/>
<path d="M0 0 C0.33 1.32 0.66 2.64 1 4 C-0.32 4.99 -1.64 5.98 -3 7 C-3.1875 4.625 -3.1875 4.625 -3 2 C-2.01 1.34 -1.02 0.68 0 0 Z " fill="#EBD802" transform="translate(113,120)"/>
<path d="M0 0 C0.99 1.32 1.98 2.64 3 4 C0.125 4.1875 0.125 4.1875 -3 4 C-3.66 3.01 -4.32 2.02 -5 1 C-3.35 0.67 -1.7 0.34 0 0 Z " fill="#CDCBCC" transform="translate(79,105)"/>
<path d="M0 0 C0.66 0 1.32 0 2 0 C2.33 2.97 2.66 5.94 3 9 C2.01 9 1.02 9 0 9 C0 6.03 0 3.06 0 0 Z " fill="#0B0C15" transform="translate(183,100)"/>
<path d="M0 0 C0.66 0 1.32 0 2 0 C2.33 1.65 2.66 3.3 3 5 C2.01 5 1.02 5 0 5 C-0.5625 3.0625 -0.5625 3.0625 -1 1 C-0.67 0.67 -0.34 0.34 0 0 Z " fill="#F1E703" transform="translate(114,89)"/>
</svg>
