<svg version="1.1" id="Layer_1" xmlns="http://www.w3.org/2000/svg" xmlns:xlink="http://www.w3.org/1999/xlink" x="0px" y="0px"
	 width="100%" viewBox="0 0 84 88" enable-background="new 0 0 84 88" xml:space="preserve">
<path fill="#DEDEDD" opacity="1.000000" stroke="none" 
	d="
M67.000000,1.000000 
	C72.989044,1.000000 78.978088,1.000000 84.983566,1.000000 
	C84.983566,30.268805 84.983566,59.537621 84.983566,88.903214 
	C57.115952,88.903214 29.231457,88.903214 1.000000,88.903214 
	C1.000000,72.647408 1.000000,56.292362 1.344689,39.416103 
	C1.997071,38.774803 2.427838,38.745895 2.594307,38.521187 
	C6.014558,33.904369 8.014943,37.656178 10.294406,39.802883 
	C13.323572,42.655632 11.048760,43.708557 8.747566,45.263241 
	C5.308115,47.586929 4.804718,52.801922 8.388036,54.441444 
	C12.784087,56.452824 14.716239,60.148491 17.529264,63.324257 
	C18.663782,64.605072 19.960953,65.741814 21.422045,67.156754 
	C23.443243,69.192955 25.226500,71.016533 27.043280,73.141281 
	C27.743713,73.571983 28.410624,73.701515 29.449989,73.839386 
	C30.550667,73.995705 31.278887,74.143677 32.131954,74.619385 
	C34.501644,74.746384 36.746487,74.545639 39.411877,74.242081 
	C41.843826,73.995689 43.855228,73.852097 46.039539,73.955338 
	C46.806736,73.771187 47.401024,73.340210 48.314484,72.796227 
	C49.780846,72.021370 50.928040,71.359535 52.391441,70.837151 
	C55.141464,72.253967 57.575272,73.531334 60.043991,75.117355 
	C60.759441,75.525177 61.439980,75.624359 62.501541,75.708092 
	C64.867760,76.002312 66.852951,76.311966 68.998070,76.876419 
	C69.770363,76.770103 70.382721,76.408981 71.258972,75.819283 
	C74.529984,73.584526 75.530243,70.600174 74.174080,67.497276 
	C72.907593,64.599518 70.709709,62.108822 68.978432,59.205544 
	C69.071289,58.645321 69.070335,58.318607 69.309555,57.805115 
	C72.335808,52.432259 75.084709,47.246281 78.179825,41.984116 
	C78.720146,40.894073 78.914261,39.880219 79.108383,38.866371 
	C78.015907,38.993473 76.923431,39.120575 75.681396,39.232647 
	C75.531845,39.217613 75.268822,39.072037 74.988525,39.187775 
	C74.501564,39.641640 74.294907,39.979771 74.141289,40.400620 
	C74.194328,40.483337 74.148727,40.674496 74.102448,41.004219 
	C74.037262,41.555111 74.018356,41.776279 73.861877,42.315041 
	C71.605721,45.805973 69.487137,48.979305 66.915451,52.108749 
	C65.563393,52.074585 64.664452,52.084301 63.476318,51.955063 
	C61.419289,49.977230 59.651455,48.138348 57.909889,45.913445 
	C57.545753,44.637669 57.155350,43.747910 56.850731,42.576591 
	C57.372234,41.643330 57.807949,40.991619 58.567497,40.250576 
	C60.244961,38.438488 61.598595,36.715736 63.340054,34.985229 
	C65.028976,34.105961 67.504089,33.113697 67.429016,32.383736 
	C67.094582,29.132242 66.788208,25.431107 65.029121,22.891806 
	C63.058514,20.047165 59.766457,17.866352 55.499390,19.518848 
	C54.102180,20.059944 52.348301,19.730379 50.758545,19.711874 
	C48.501572,19.685602 46.128979,19.100195 44.015553,19.614952 
	C40.570995,20.453930 37.295918,21.988758 33.093193,23.547482 
	C34.866806,16.731718 38.307266,14.480375 43.736286,13.787723 
	C46.902435,13.383774 50.687634,11.927036 52.662350,9.628073 
	C54.977848,6.932374 57.080353,6.072645 60.218575,6.574430 
	C66.166183,7.525420 66.799049,7.010171 67.000000,1.000000 
z"/>
<path fill="#DADAD7" opacity="1.000000" stroke="none" 
	d="
M21.184101,66.944115 
	C19.960953,65.741814 18.663782,64.605072 17.529264,63.324257 
	C14.716239,60.148491 12.784087,56.452824 8.388036,54.441444 
	C4.804718,52.801922 5.308115,47.586929 8.747566,45.263241 
	C11.048760,43.708557 13.323572,42.655632 10.294406,39.802883 
	C8.014943,37.656178 6.014558,33.904369 2.594307,38.521187 
	C2.427838,38.745895 1.997071,38.774803 1.344689,38.947445 
	C1.000000,26.386854 1.000000,13.773708 1.000000,1.000000 
	C22.687325,1.000000 44.375004,1.000000 66.531342,1.000000 
	C66.799049,7.010171 66.166183,7.525420 60.218575,6.574430 
	C57.080353,6.072645 54.977848,6.932374 52.662350,9.628073 
	C50.687634,11.927036 46.902435,13.383774 43.736286,13.787723 
	C38.307266,14.480375 34.866806,16.731718 33.093193,23.547482 
	C37.295918,21.988758 40.570995,20.453930 44.015553,19.614952 
	C46.128979,19.100195 48.501572,19.685602 50.758545,19.711874 
	C52.348301,19.730379 54.102180,20.059944 55.499390,19.518848 
	C59.766457,17.866352 63.058514,20.047165 65.029121,22.891806 
	C66.788208,25.431107 67.094582,29.132242 67.429016,32.383736 
	C67.504089,33.113697 65.028976,34.105961 63.374763,34.610744 
	C64.508118,27.785749 61.972950,23.919998 55.520996,23.287012 
	C54.128475,23.196424 53.109257,23.194715 51.666515,23.104527 
	C45.951778,23.117151 41.096401,24.246822 37.386482,28.805956 
	C36.363426,28.995523 35.630562,29.143709 34.586922,29.055094 
	C28.459114,26.134863 22.814529,22.930161 16.771156,20.930960 
	C11.829679,19.296274 8.939220,21.877975 9.452430,27.053406 
	C9.776945,30.325974 11.005710,33.795937 12.780334,36.568344 
	C15.256536,40.436806 18.621479,43.736378 21.406557,47.613468 
	C19.041676,49.003956 16.876345,50.060371 15.081877,50.935848 
	C16.214090,52.158386 18.713030,53.739513 19.461826,55.921299 
	C20.650467,59.384651 20.669996,63.249256 21.184101,66.944115 
z"/>
<path fill="#F8EC1E" opacity="1.000000" stroke="none" 
	d="
M21.606106,47.279392 
	C18.621479,43.736378 15.256536,40.436806 12.780334,36.568344 
	C11.005710,33.795937 9.776945,30.325974 9.452430,27.053406 
	C8.939220,21.877975 11.829679,19.296274 16.771156,20.930960 
	C22.814529,22.930161 28.459114,26.134863 34.369480,29.345640 
	C33.084663,31.057697 31.706503,32.242405 30.001957,33.207047 
	C25.064581,30.839878 20.910458,27.423874 15.665218,27.038322 
	C15.230271,27.572397 14.795324,28.106472 14.360377,28.640547 
	C17.921852,32.792068 21.483326,36.943588 25.115803,41.380875 
	C25.759594,42.154755 26.332378,42.642868 27.082508,43.456745 
	C28.368443,44.771732 29.477032,45.760960 30.621666,46.958069 
	C31.676943,47.854568 32.696175,48.543182 33.837227,49.522453 
	C34.952969,50.516151 35.946892,51.219196 37.113750,52.214752 
	C43.112221,56.464390 48.937752,60.421509 54.920929,64.668411 
	C56.892185,65.697624 58.705803,66.437073 60.710361,67.497314 
	C62.958012,68.648598 65.014717,69.479080 67.071419,70.309563 
	C67.390381,69.870903 67.709351,69.432236 68.028313,68.993568 
	C67.086250,67.248405 66.144188,65.503235 65.331039,63.414360 
	C66.613907,61.860088 67.767845,60.649525 68.921783,59.438957 
	C70.709709,62.108822 72.907593,64.599518 74.174080,67.497276 
	C75.530243,70.600174 74.529984,73.584526 70.969528,75.779846 
	C69.890182,76.186539 69.364159,76.404083 68.838142,76.621628 
	C66.852951,76.311966 64.867760,76.002312 62.299850,75.485626 
	C61.147781,75.121971 60.578430,74.965332 60.009075,74.808701 
	C57.575272,73.531334 55.141464,72.253967 52.211281,70.565727 
	C49.964043,69.281898 48.213173,68.408958 46.332039,67.223503 
	C40.913258,62.984585 35.624744,59.058170 30.169470,54.818562 
	C27.203840,52.096710 24.404974,49.688049 21.606106,47.279392 
z"/>
<path fill="#888884" opacity="1.000000" stroke="none" 
	d="
M46.462307,67.536011 
	C48.213173,68.408958 49.964043,69.281898 51.895069,70.426270 
	C50.928040,71.359535 49.780846,72.021370 48.016327,72.789444 
	C46.888210,73.166618 46.377422,73.437561 45.866631,73.708504 
	C43.855228,73.852097 41.843826,73.995689 38.985516,74.133850 
	C36.094772,74.182823 34.050941,74.237236 32.007107,74.291649 
	C31.278887,74.143677 30.550667,73.995705 29.261303,73.606094 
	C28.136692,73.189674 27.573223,73.014893 27.009754,72.840103 
	C25.226500,71.016533 23.443243,69.192955 21.422047,67.156754 
	C20.669996,63.249256 20.650467,59.384651 19.461826,55.921299 
	C18.713030,53.739513 16.214090,52.158386 15.081877,50.935848 
	C16.876345,50.060371 19.041676,49.003956 21.406557,47.613468 
	C24.404974,49.688049 27.203840,52.096710 30.067661,55.232422 
	C29.461773,66.463860 37.209335,71.956299 46.462307,67.536011 
z"/>
<path fill="#81817D" opacity="1.000000" stroke="none" 
	d="
M52.090038,23.193005 
	C53.109257,23.194715 54.128475,23.196424 55.647980,23.587788 
	C60.812576,26.377911 62.296753,30.054020 60.483376,34.982937 
	C59.815739,36.797634 58.994724,38.555904 58.243668,40.339912 
	C57.807949,40.991619 57.372234,41.643330 56.470795,42.669418 
	C55.770828,43.159248 55.536575,43.274704 55.167000,43.638222 
	C53.661339,44.596039 52.291000,45.305794 50.542992,46.012062 
	C48.658245,46.404087 47.164700,47.015720 45.638855,47.111214 
	C44.772026,47.165462 43.852333,46.374943 43.225868,45.836052 
	C43.991676,45.104076 44.488068,44.500916 45.287498,43.787476 
	C47.013912,42.311184 48.437286,40.945160 50.193497,39.429260 
	C51.792164,37.555828 53.057995,35.832268 54.620468,33.995960 
	C56.279949,32.299492 58.334278,30.750910 55.077179,28.657444 
	C54.672062,27.886986 54.358284,27.396090 53.984093,26.597635 
	C53.312466,25.257721 52.701252,24.225363 52.090038,23.193005 
z"/>
<path fill="#F7EC1F" opacity="1.000000" stroke="none" 
	d="
M50.920666,46.015549 
	C52.291000,45.305794 53.661339,44.596039 55.263523,43.949318 
	C56.291454,44.774719 57.087540,45.537090 57.883625,46.299465 
	C59.651455,48.138348 61.419289,49.977230 63.599773,52.288010 
	C64.433739,53.345001 64.855057,53.930099 65.236687,54.872341 
	C63.815132,56.430641 62.433270,57.631798 60.800228,58.540413 
	C56.968670,54.817165 53.388287,51.386459 49.945271,47.709122 
	C50.361980,46.980179 50.641323,46.497864 50.920666,46.015549 
z"/>
<path fill="#969696" opacity="1.000000" stroke="none" 
	d="
M74.148727,40.674496 
	C74.148727,40.674496 74.194328,40.483337 74.372002,40.225052 
	C74.789391,39.668526 75.029106,39.370281 75.268822,39.072037 
	C75.268822,39.072037 75.531845,39.217613 75.694099,39.555420 
	C76.515442,40.615589 77.174522,41.337944 77.833611,42.060303 
	C75.084709,47.246281 72.335808,52.432259 68.997131,57.801018 
	C67.936798,56.976910 67.466225,55.970016 67.000099,54.607807 
	C67.125885,53.552536 67.247223,52.852589 67.368561,52.152637 
	C69.487137,48.979305 71.605721,45.805973 74.060646,42.215214 
	C74.471489,41.668259 74.638405,41.499947 74.603348,41.416382 
	C74.492439,41.152039 74.305969,40.919399 74.148727,40.674496 
z"/>
<path fill="#9B9B81" opacity="1.000000" stroke="none" 
	d="
M66.995644,54.963127 
	C67.466225,55.970016 67.936798,56.976910 68.719795,57.987896 
	C69.070335,58.318607 69.071289,58.645321 68.978432,59.205544 
	C67.767845,60.649525 66.613907,61.860088 65.035751,63.475540 
	C63.247505,64.979118 61.883461,66.077820 60.519417,67.176514 
	C58.705803,66.437073 56.892185,65.697624 55.235275,64.477852 
	C57.278454,62.276001 59.164932,60.554478 61.051407,58.832954 
	C62.433270,57.631798 63.815132,56.430641 65.453835,54.885193 
	C66.138992,54.681641 66.567322,54.822384 66.995644,54.963127 
z"/>
<path fill="#9B9B97" opacity="1.000000" stroke="none" 
	d="
M58.567497,40.250576 
	C58.994724,38.555904 59.815739,36.797634 60.483376,34.982937 
	C62.296753,30.054020 60.812576,26.377911 56.021286,23.676662 
	C61.972950,23.919998 64.508118,27.785749 62.986938,34.618504 
	C61.598595,36.715736 60.244961,38.438488 58.567497,40.250576 
z"/>
<path fill="#DADAD7" opacity="1.000000" stroke="none" 
	d="
M78.179825,41.984116 
	C77.174522,41.337944 76.515442,40.615589 75.843658,39.570457 
	C76.923431,39.120575 78.015907,38.993473 79.108383,38.866371 
	C78.914261,39.880219 78.720146,40.894073 78.179825,41.984116 
z"/>
<path fill="#DADAD7" opacity="1.000000" stroke="none" 
	d="
M32.131954,74.619385 
	C34.050941,74.237236 36.094772,74.182823 38.564968,74.236649 
	C36.746487,74.545639 34.501644,74.746384 32.131954,74.619385 
z"/>
<path fill="#DADAD7" opacity="1.000000" stroke="none" 
	d="
M67.000099,54.607807 
	C66.567322,54.822384 66.138992,54.681641 65.493523,54.528046 
	C64.855057,53.930099 64.433739,53.345001 63.888969,52.426960 
	C64.664452,52.084301 65.563393,52.074585 66.915451,52.108749 
	C67.247223,52.852589 67.125885,53.552536 67.000099,54.607807 
z"/>
<path fill="#DADAD7" opacity="1.000000" stroke="none" 
	d="
M57.909889,45.913445 
	C57.087540,45.537090 56.291454,44.774719 55.398849,43.701248 
	C55.536575,43.274704 55.770828,43.159248 56.385010,42.950974 
	C57.155350,43.747910 57.545753,44.637669 57.909889,45.913445 
z"/>
<path fill="#DADAD7" opacity="1.000000" stroke="none" 
	d="
M46.039543,73.955338 
	C46.377422,73.437561 46.888210,73.166618 47.697159,72.902466 
	C47.401024,73.340210 46.806736,73.771187 46.039543,73.955338 
z"/>
<path fill="#DADAD7" opacity="1.000000" stroke="none" 
	d="
M68.998070,76.876419 
	C69.364159,76.404083 69.890182,76.186539 70.705643,76.008423 
	C70.382721,76.408981 69.770363,76.770103 68.998070,76.876419 
z"/>
<path fill="#DADAD7" opacity="1.000000" stroke="none" 
	d="
M60.043991,75.117355 
	C60.578430,74.965332 61.147781,75.121971 61.918827,75.501068 
	C61.439980,75.624359 60.759441,75.525177 60.043991,75.117355 
z"/>
<path fill="#DADAD7" opacity="1.000000" stroke="none" 
	d="
M27.043280,73.141281 
	C27.573223,73.014893 28.136692,73.189674 28.888847,73.597748 
	C28.410624,73.701515 27.743713,73.571983 27.043280,73.141281 
z"/>
<path fill="#DADAD7" opacity="1.000000" stroke="none" 
	d="
M74.102448,41.004219 
	C74.305969,40.919399 74.492439,41.152039 74.603348,41.416382 
	C74.638405,41.499947 74.471489,41.668259 74.198227,41.897614 
	C74.018356,41.776279 74.037262,41.555111 74.102448,41.004219 
z"/>
<path fill="#DADAD7" opacity="1.000000" stroke="none" 
	d="
M74.988525,39.187775 
	C75.029106,39.370281 74.789391,39.668526 74.318962,40.142334 
	C74.294907,39.979771 74.501564,39.641640 74.988525,39.187775 
z"/>
<path fill="#84847E" opacity="1.000000" stroke="none" 
	d="
M30.585623,46.750183 
	C29.477032,45.760960 28.368443,44.771732 27.118176,43.036118 
	C26.903717,41.448921 26.830931,40.608116 26.809124,39.556358 
	C26.860100,39.345402 27.043257,38.951878 27.352028,38.904419 
	C28.051775,38.208206 28.442749,37.559452 28.986008,36.626217 
	C29.534977,35.370193 29.931660,34.398655 30.328342,33.427113 
	C31.706503,32.242405 33.084663,31.057697 34.680260,29.582443 
	C35.630562,29.143709 36.363426,28.995523 37.767693,28.838289 
	C40.788773,28.391817 43.138443,27.954393 45.220192,27.738817 
	C43.676636,29.671541 42.401009,31.382416 40.892689,33.209988 
	C39.479324,35.071331 38.298653,36.815975 36.813087,38.763107 
	C34.534004,41.560459 32.559814,44.155319 30.585623,46.750183 
z"/>
<path fill="#9B9B97" opacity="1.000000" stroke="none" 
	d="
M45.488117,27.516968 
	C43.138443,27.954393 40.788773,28.391817 38.057888,28.796907 
	C41.096401,24.246822 45.951778,23.117151 51.666515,23.104527 
	C52.701252,24.225363 53.312466,25.257721 53.619545,26.576385 
	C50.706314,27.080788 48.097214,27.298878 45.488117,27.516968 
z"/>
<path fill="#DDDCCA" opacity="1.000000" stroke="none" 
	d="
M60.800232,58.540417 
	C59.164932,60.554478 57.278454,62.276001 55.077629,64.188080 
	C48.937752,60.421509 43.112221,56.464390 37.463028,52.085892 
	C41.695541,50.428261 45.751720,49.192005 49.807899,47.955750 
	C53.388287,51.386459 56.968670,54.817165 60.800232,58.540417 
z"/>
<path fill="#D5D4C3" opacity="1.000000" stroke="none" 
	d="
M46.332039,67.223503 
	C37.209335,71.956299 29.461773,66.463860 30.234425,55.545616 
	C35.624744,59.058170 40.913258,62.984585 46.332039,67.223503 
z"/>
<path fill="#DEDCBB" opacity="1.000000" stroke="none" 
	d="
M30.001957,33.207047 
	C29.931660,34.398655 29.534977,35.370193 28.699253,36.705040 
	C27.854561,37.696186 27.448908,38.324032 27.043257,38.951878 
	C27.043257,38.951878 26.860100,39.345402 26.546436,39.648323 
	C25.836782,40.332535 25.440790,40.713825 25.044800,41.095112 
	C21.483326,36.943588 17.921852,32.792068 14.360377,28.640547 
	C14.795324,28.106472 15.230271,27.572397 15.665218,27.038322 
	C20.910458,27.423874 25.064581,30.839878 30.001957,33.207047 
z"/>
<path fill="#D1D0C4" opacity="1.000000" stroke="none" 
	d="
M30.621666,46.958069 
	C32.559814,44.155319 34.534004,41.560459 37.141346,38.899387 
	C40.177818,40.521370 42.581139,42.209560 44.984459,43.897751 
	C44.488068,44.500916 43.991676,45.104076 42.952816,45.823227 
	C41.929329,46.170238 41.448315,46.401264 40.651031,46.754768 
	C39.494797,47.215538 38.654827,47.553833 37.438560,47.871254 
	C35.946644,48.310860 34.831028,48.771332 33.715408,49.231804 
	C32.696175,48.543182 31.676943,47.854568 30.621666,46.958069 
z"/>
<path fill="#A1A093" opacity="1.000000" stroke="none" 
	d="
M33.837227,49.522457 
	C34.831028,48.771332 35.946644,48.310860 37.685856,48.125282 
	C39.195400,47.810883 40.081352,47.221592 40.967300,46.632294 
	C41.448315,46.401264 41.929329,46.170238 42.683395,45.952034 
	C43.852333,46.374943 44.772026,47.165462 45.638855,47.111214 
	C47.164700,47.015720 48.658245,46.404087 50.542992,46.012062 
	C50.641323,46.497864 50.361980,46.980179 49.945271,47.709122 
	C45.751720,49.192005 41.695541,50.428261 37.290085,51.793377 
	C35.946892,51.219196 34.952969,50.516151 33.837227,49.522457 
z"/>
<path fill="#DFDDAC" opacity="1.000000" stroke="none" 
	d="
M60.710361,67.497314 
	C61.883461,66.077820 63.247505,64.979118 64.906837,63.819244 
	C66.144188,65.503235 67.086250,67.248405 68.028313,68.993568 
	C67.709351,69.432236 67.390381,69.870903 67.071419,70.309563 
	C65.014717,69.479080 62.958012,68.648598 60.710361,67.497314 
z"/>
<path fill="#A3A287" opacity="1.000000" stroke="none" 
	d="
M25.115803,41.380875 
	C25.440790,40.713825 25.836782,40.332535 26.495461,39.859283 
	C26.830931,40.608116 26.903717,41.448921 26.940832,42.710350 
	C26.332378,42.642868 25.759594,42.154755 25.115803,41.380875 
z"/>
<path fill="#D6D6CE" opacity="1.000000" stroke="none" 
	d="
M45.220192,27.738819 
	C48.097214,27.298878 50.706314,27.080788 53.679958,26.883945 
	C54.358284,27.396090 54.672062,27.886986 54.997208,29.029142 
	C54.780319,31.156504 54.552074,32.632603 54.323826,34.108704 
	C53.057995,35.832268 51.792164,37.555828 49.879181,39.255806 
	C46.529819,37.185913 43.827602,35.139603 41.125381,33.093292 
	C42.401009,31.382416 43.676636,29.671541 45.220192,27.738819 
z"/>
<path fill="#F2E827" opacity="1.000000" stroke="none" 
	d="
M40.892693,33.209991 
	C43.827602,35.139603 46.529819,37.185913 49.546349,39.405678 
	C48.437286,40.945160 47.013912,42.311184 45.287498,43.787476 
	C42.581139,42.209560 40.177818,40.521370 37.446239,38.696899 
	C38.298653,36.815975 39.479324,35.071331 40.892693,33.209991 
z"/>
<path fill="#9B9B97" opacity="1.000000" stroke="none" 
	d="
M54.620468,33.995960 
	C54.552074,32.632603 54.780319,31.156504 55.088539,29.308704 
	C58.334278,30.750910 56.279949,32.299492 54.620468,33.995960 
z"/>
<path fill="#A3A287" opacity="1.000000" stroke="none" 
	d="
M27.352028,38.904419 
	C27.448908,38.324032 27.854561,37.696186 28.546967,36.989517 
	C28.442749,37.559452 28.051775,38.208206 27.352028,38.904419 
z"/>
<path fill="#81817D" opacity="1.000000" stroke="none" 
	d="
M40.651035,46.754772 
	C40.081352,47.221592 39.195400,47.810883 38.062157,48.146149 
	C38.654827,47.553833 39.494797,47.215538 40.651035,46.754772 
z"/>
</svg>